{"glyphs":{"0":{"ha":1154,"x_min":0,"x_max":0,"o":"m 718 908 b 200 383 435 908 200 717 b 591 -11 200 133 364 -11 b 1108 512 876 -11 1108 175 b 718 908 1108 765 940 908 z m 265 389 b 711 851 265 674 460 851 b 1044 508 909 851 1044 724 b 595 45 1044 219 851 45 b 265 389 402 45 265 172 z "},"1":{"ha":549,"x_min":0,"x_max":0,"o":"m 444 838 l 299 0 l 360 0 l 515 895 l 458 895 l 224 849 l 228 801 z "},"2":{"ha":942,"x_min":0,"x_max":0,"o":"m 632 482 l 419 412 b 140 127 240 351 169 295 l 117 0 l 851 0 l 861 55 l 190 55 l 201 121 b 434 356 224 254 276 303 l 647 425 b 945 709 885 501 945 556 b 674 908 945 844 856 908 b 304 835 517 908 378 865 l 322 778 b 672 851 405 812 544 851 b 881 708 810 851 881 808 b 632 482 881 594 844 552 z "},"3":{"ha":940,"x_min":0,"x_max":0,"o":"m 453 -11 b 885 277 665 -11 885 59 b 736 474 885 394 833 458 b 917 703 838 502 917 583 b 638 908 917 859 791 908 b 267 835 472 908 346 866 l 285 781 b 631 851 363 813 500 851 b 852 697 794 851 852 790 b 583 488 852 603 772 488 l 354 488 l 345 434 l 578 434 b 821 270 753 434 821 401 b 453 45 821 122 649 45 b 108 118 299 45 196 78 l 84 62 b 453 -11 172 17 282 -11 z "},"4":{"ha":935,"x_min":0,"x_max":0,"o":"m 701 193 l 668 0 l 727 0 l 760 193 l 930 193 l 939 246 l 769 246 l 882 895 l 797 895 l 123 254 l 113 193 z m 189 246 l 813 840 l 710 246 z "},"5":{"ha":958,"x_min":0,"x_max":0,"o":"m 154 114 l 131 60 b 489 -11 218 15 331 -11 b 892 323 706 -11 892 82 b 612 565 892 486 788 565 b 309 507 463 565 369 531 l 391 841 l 918 841 l 927 895 l 349 895 l 245 476 l 281 440 b 605 509 381 480 469 509 b 827 318 756 509 827 440 b 495 45 827 118 664 45 b 154 114 342 45 244 74 z "},"6":{"ha":1033,"x_min":0,"x_max":0,"o":"m 732 908 b 197 353 406 908 197 681 b 559 -11 197 99 351 -11 b 993 344 878 -11 993 188 b 673 592 993 532 838 592 b 260 387 485 592 323 488 b 727 851 272 658 449 851 b 978 806 842 851 903 833 l 1003 856 b 732 908 949 878 872 908 z m 262 319 b 667 535 341 441 497 535 b 928 344 813 535 928 481 b 565 45 928 102 695 45 b 262 319 425 45 278 107 z "},"7":{"ha":798,"x_min":0,"x_max":0,"o":"m 172 30 l 219 -6 l 885 832 l 893 895 l 197 895 l 187 841 l 821 841 z "},"8":{"ha":1035,"x_min":0,"x_max":0,"o":"m 458 449 b 169 196 308 424 169 345 b 535 -12 169 50 304 -12 b 978 242 755 -12 978 61 b 769 453 978 360 908 430 b 1006 690 867 474 1006 538 b 675 908 1006 827 876 908 b 287 646 458 908 287 810 b 458 449 287 533 357 482 z m 234 204 b 611 418 234 345 408 418 b 915 241 840 418 915 356 b 544 43 915 100 714 43 b 234 204 342 43 234 92 z m 351 649 b 671 852 351 776 485 852 b 942 685 833 852 942 794 b 610 473 942 546 760 473 b 351 649 468 473 351 534 z "},"9":{"ha":1049,"x_min":0,"x_max":0,"o":"m 472 -11 b 1008 553 811 -11 1008 220 b 642 908 1008 798 853 908 b 211 560 375 908 211 754 b 521 326 211 381 356 326 b 946 521 715 326 881 427 b 477 45 935 234 754 45 b 197 101 351 45 266 69 l 174 47 b 472 -11 226 19 315 -11 z m 276 560 b 640 851 276 776 480 851 b 943 588 785 851 926 788 b 528 382 855 465 698 382 b 276 560 378 382 276 431 z "}," ":{"ha":394,"x_min":0,"x_max":0,"o":""},"A":{"ha":1067,"x_min":0,"x_max":0,"o":"m 60 26 l 113 -12 l 267 221 l 890 221 l 963 -10 l 1026 10 l 733 895 l 644 895 z m 305 276 l 685 850 l 871 276 z "},"À":{"ha":1067,"x_min":0,"x_max":0,"o":"m 60 26 l 113 -12 l 267 221 l 890 221 l 963 -10 l 1026 10 l 733 895 l 644 895 z m 305 276 l 685 850 l 871 276 z m 471 1139 l 693 1002 l 726 1047 l 510 1192 z "},"Á":{"ha":1067,"x_min":0,"x_max":0,"o":"m 60 26 l 113 -12 l 267 221 l 890 221 l 963 -10 l 1026 10 l 733 895 l 644 895 z m 305 276 l 685 850 l 871 276 z m 668 1050 l 690 1001 l 988 1136 l 962 1192 z "},"Â":{"ha":1067,"x_min":0,"x_max":0,"o":"m 60 26 l 113 -12 l 267 221 l 890 221 l 963 -10 l 1026 10 l 733 895 l 644 895 z m 305 276 l 685 850 l 871 276 z m 488 1040 l 525 999 l 725 1167 l 867 999 l 909 1033 l 757 1207 l 697 1207 z "},"Ã":{"ha":1067,"x_min":0,"x_max":0,"o":"m 60 26 l 113 -12 l 267 221 l 890 221 l 963 -10 l 1026 10 l 733 895 l 644 895 z m 305 276 l 685 850 l 871 276 z m 469 1044 l 509 1018 b 614 1091 544 1063 577 1091 b 694 1052 642 1091 660 1077 b 800 1012 733 1026 761 1012 b 952 1116 857 1012 903 1039 l 910 1140 b 805 1063 874 1086 844 1063 b 724 1098 778 1063 756 1076 b 617 1143 681 1128 658 1143 b 469 1044 568 1143 516 1116 z "},"Ä":{"ha":1067,"x_min":0,"x_max":0,"o":"m 60 26 l 113 -12 l 267 221 l 890 221 l 963 -10 l 1026 10 l 733 895 l 644 895 z m 305 276 l 685 850 l 871 276 z m 565 1024 l 632 1024 l 648 1119 l 581 1119 z m 767 1024 l 834 1024 l 851 1119 l 783 1119 z "},"Å":{"ha":1067,"x_min":0,"x_max":0,"o":"m 60 26 l 113 -12 l 267 221 l 890 221 l 963 -10 l 1026 10 l 733 895 l 644 895 z m 305 276 l 685 850 l 871 276 z m 580 1097 b 706 990 580 1032 624 990 b 863 1122 794 990 863 1046 b 737 1231 863 1190 816 1231 b 580 1097 645 1231 580 1172 z m 629 1102 b 733 1190 629 1149 673 1190 b 813 1117 788 1190 813 1160 b 709 1031 813 1070 768 1031 b 629 1102 653 1031 629 1060 z "},"Ā":{"ha":1067,"x_min":0,"x_max":0,"o":"m 60 26 l 113 -12 l 267 221 l 890 221 l 963 -10 l 1026 10 l 733 895 l 644 895 z m 305 276 l 685 850 l 871 276 z m 517 1029 l 895 1029 l 904 1082 l 526 1082 z "},"Ă":{"ha":1067,"x_min":0,"x_max":0,"o":"m 60 26 l 113 -12 l 267 221 l 890 221 l 963 -10 l 1026 10 l 733 895 l 644 895 z m 305 276 l 685 850 l 871 276 z m 541 1159 b 702 1003 541 1067 583 1003 b 927 1190 835 1003 897 1078 l 874 1198 b 706 1053 837 1086 783 1053 b 592 1180 635 1053 592 1081 b 593 1197 592 1185 592 1191 l 542 1194 b 541 1159 541 1182 541 1171 z "},"Ą":{"ha":1108,"x_min":0,"x_max":0,"o":"m 915 -284 b 1028 -261 958 -284 994 -275 l 1015 -219 b 921 -239 987 -231 960 -239 b 838 -162 867 -239 838 -214 b 1026 10 838 -100 879 -47 l 733 895 l 644 895 l 60 26 l 113 -12 l 267 221 l 890 221 l 951 26 b 783 -167 830 -29 783 -92 b 915 -284 783 -242 833 -284 z m 305 276 l 685 850 l 871 276 z "},"Ǻ":{"ha":1067,"x_min":0,"x_max":0,"o":"m 60 26 l 113 -12 l 267 221 l 890 221 l 963 -10 l 1026 10 l 733 895 l 644 895 z m 305 276 l 685 850 l 871 276 z m 575 1041 b 701 933 575 976 619 933 b 858 1065 790 933 858 990 b 732 1175 858 1134 811 1175 b 575 1041 640 1175 575 1116 z m 624 1046 b 728 1133 624 1093 668 1133 b 808 1061 783 1133 808 1104 b 704 975 808 1014 763 975 b 624 1046 649 975 624 1003 z m 633 1240 l 655 1191 l 953 1326 l 926 1381 z "},"B":{"ha":1137,"x_min":0,"x_max":0,"o":"m 793 896 l 332 896 l 177 0 l 639 0 b 1060 269 916 0 1060 97 b 895 476 1060 397 998 457 b 1096 707 1005 505 1096 589 b 793 896 1096 846 989 896 z m 249 58 l 315 440 l 778 440 b 996 266 942 440 996 375 b 653 58 996 144 869 58 z m 325 496 l 385 838 l 787 838 b 1031 701 953 838 1031 794 b 760 496 1031 596 916 496 z "},"C":{"ha":1109,"x_min":0,"x_max":0,"o":"m 618 -11 b 1003 80 765 -11 884 26 l 981 134 b 617 48 868 84 762 48 b 262 369 407 48 262 165 b 758 848 262 678 481 848 b 1080 781 870 848 969 826 l 1108 838 b 760 907 1010 877 909 907 b 195 369 478 907 195 733 b 618 -11 195 119 373 -11 z "},"Ç":{"ha":1109,"x_min":0,"x_max":0,"o":"m 422 -222 l 407 -267 b 516 -283 430 -275 469 -283 b 700 -129 631 -283 700 -228 b 654 -10 700 -82 688 -42 b 1003 80 784 -5 894 30 l 981 134 b 617 48 868 84 762 48 b 262 369 407 48 262 165 b 758 848 262 678 481 848 b 1080 781 870 848 969 826 l 1108 838 b 760 907 1010 877 909 907 b 195 369 478 907 195 733 b 571 -10 195 135 351 6 b 647 -129 635 -41 647 -86 b 524 -238 647 -204 590 -238 b 422 -222 482 -238 444 -230 z "},"Ć":{"ha":1109,"x_min":0,"x_max":0,"o":"m 740 1050 l 762 1001 l 1060 1136 l 1033 1192 z m 195 369 b 618 -11 195 119 373 -11 b 1003 80 765 -11 884 26 l 981 134 b 617 48 868 84 762 48 b 262 369 407 48 262 165 b 758 848 262 678 481 848 b 1080 781 870 848 969 826 l 1108 838 b 760 907 1010 877 909 907 b 195 369 478 907 195 733 z "},"Ĉ":{"ha":1109,"x_min":0,"x_max":0,"o":"m 572 1040 l 609 999 l 809 1167 l 951 999 l 993 1033 l 841 1207 l 781 1207 z m 195 369 b 618 -11 195 119 373 -11 b 1003 80 765 -11 884 26 l 981 134 b 617 48 868 84 762 48 b 262 369 407 48 262 165 b 758 848 262 678 481 848 b 1080 781 870 848 969 826 l 1108 838 b 760 907 1010 877 909 907 b 195 369 478 907 195 733 z "},"Ċ":{"ha":1109,"x_min":0,"x_max":0,"o":"m 618 -11 b 1003 80 765 -11 884 26 l 981 134 b 617 48 868 84 762 48 b 262 369 407 48 262 165 b 758 848 262 678 481 848 b 1080 781 870 848 969 826 l 1108 838 b 760 907 1010 877 909 907 b 195 369 478 907 195 733 b 618 -11 195 119 373 -11 z m 753 1024 l 820 1024 l 836 1119 l 769 1119 z "},"Č":{"ha":1109,"x_min":0,"x_max":0,"o":"m 602 1187 l 753 1016 l 813 1016 l 1017 1184 l 981 1222 l 785 1057 l 644 1222 z m 195 369 b 618 -11 195 119 373 -11 b 1003 80 765 -11 884 26 l 981 134 b 617 48 868 84 762 48 b 262 369 407 48 262 165 b 758 848 262 678 481 848 b 1080 781 870 848 969 826 l 1108 838 b 760 907 1010 877 909 907 b 195 369 478 907 195 733 z "},"D":{"ha":1163,"x_min":0,"x_max":0,"o":"m 177 0 l 537 0 b 1120 537 954 0 1120 197 b 697 895 1120 789 975 895 l 332 895 z m 249 58 l 383 838 l 692 838 b 1054 526 949 838 1054 737 b 547 58 1054 251 925 58 z "},"Ď":{"ha":1163,"x_min":0,"x_max":0,"o":"m 531 1187 l 681 1016 l 742 1016 l 945 1184 l 910 1222 l 713 1057 l 572 1222 z m 177 0 l 537 0 b 1120 537 954 0 1120 197 b 697 895 1120 789 975 895 l 332 895 z m 249 58 l 383 838 l 692 838 b 1054 526 949 838 1054 737 b 547 58 1054 251 925 58 z "},"E":{"ha":1024,"x_min":0,"x_max":0,"o":"m 332 895 l 177 0 l 931 0 l 941 58 l 249 58 l 313 424 l 884 424 l 894 480 l 323 480 l 385 838 l 1063 838 l 1072 895 z "},"È":{"ha":1024,"x_min":0,"x_max":0,"o":"m 332 895 l 177 0 l 931 0 l 941 58 l 249 58 l 313 424 l 884 424 l 894 480 l 323 480 l 385 838 l 1063 838 l 1072 895 z m 565 1139 l 788 1002 l 820 1047 l 604 1192 z "},"É":{"ha":1024,"x_min":0,"x_max":0,"o":"m 645 1050 l 667 1001 l 965 1136 l 939 1192 z m 177 0 l 931 0 l 941 58 l 249 58 l 313 424 l 884 424 l 894 480 l 323 480 l 385 838 l 1063 838 l 1072 895 l 332 895 z "},"Ê":{"ha":1024,"x_min":0,"x_max":0,"o":"m 514 1040 l 551 999 l 751 1167 l 893 999 l 935 1033 l 783 1207 l 722 1207 z m 177 0 l 931 0 l 941 58 l 249 58 l 313 424 l 884 424 l 894 480 l 323 480 l 385 838 l 1063 838 l 1072 895 l 332 895 z "},"Ë":{"ha":1024,"x_min":0,"x_max":0,"o":"m 332 895 l 177 0 l 931 0 l 941 58 l 249 58 l 313 424 l 884 424 l 894 480 l 323 480 l 385 838 l 1063 838 l 1072 895 z m 592 1024 l 659 1024 l 675 1119 l 608 1119 z m 794 1024 l 861 1024 l 878 1119 l 810 1119 z "},"Ē":{"ha":1024,"x_min":0,"x_max":0,"o":"m 332 895 l 177 0 l 931 0 l 941 58 l 249 58 l 313 424 l 884 424 l 894 480 l 323 480 l 385 838 l 1063 838 l 1072 895 z m 551 1029 l 929 1029 l 938 1082 l 560 1082 z "},"Ĕ":{"ha":1024,"x_min":0,"x_max":0,"o":"m 332 895 l 177 0 l 931 0 l 941 58 l 249 58 l 313 424 l 884 424 l 894 480 l 323 480 l 385 838 l 1063 838 l 1072 895 z m 578 1159 b 739 1003 578 1067 620 1003 b 964 1190 872 1003 934 1078 l 910 1198 b 742 1053 874 1086 819 1053 b 629 1180 672 1053 629 1081 b 630 1197 629 1185 629 1191 l 579 1194 b 578 1159 578 1182 578 1171 z "},"Ė":{"ha":1024,"x_min":0,"x_max":0,"o":"m 332 895 l 177 0 l 931 0 l 941 58 l 249 58 l 313 424 l 884 424 l 894 480 l 323 480 l 385 838 l 1063 838 l 1072 895 z m 699 1024 l 767 1024 l 783 1119 l 716 1119 z "},"Ę":{"ha":1050,"x_min":0,"x_max":0,"o":"m 797 -284 b 909 -261 840 -284 875 -275 l 896 -219 b 803 -239 868 -231 842 -239 b 728 -166 756 -239 728 -215 b 931 0 728 -107 772 -55 l 941 58 l 249 58 l 313 424 l 884 424 l 894 480 l 323 480 l 385 838 l 1063 838 l 1072 895 l 332 895 l 177 0 l 833 0 b 674 -171 716 -45 674 -106 b 797 -284 674 -244 721 -284 z "},"Ě":{"ha":1024,"x_min":0,"x_max":0,"o":"m 548 1187 l 699 1016 l 759 1016 l 963 1184 l 927 1222 l 731 1057 l 590 1222 z m 177 0 l 931 0 l 941 58 l 249 58 l 313 424 l 884 424 l 894 480 l 323 480 l 385 838 l 1063 838 l 1072 895 l 332 895 z "},"F":{"ha":954,"x_min":0,"x_max":0,"o":"m 332 895 l 177 0 l 240 0 l 308 396 l 844 396 l 854 453 l 318 453 l 385 838 l 1045 838 l 1055 895 z "},"G":{"ha":1163,"x_min":0,"x_max":0,"o":"m 615 -11 b 1016 73 772 -11 878 21 l 1078 431 l 668 431 l 658 377 l 1008 377 l 964 117 b 618 48 840 70 759 48 b 260 367 408 48 260 151 b 763 848 260 690 502 848 b 1090 792 874 848 973 832 l 1114 849 b 778 907 1011 883 917 907 b 194 361 482 907 194 737 b 615 -11 194 113 369 -11 z "},"Ĝ":{"ha":1163,"x_min":0,"x_max":0,"o":"m 563 1040 l 599 999 l 799 1167 l 942 999 l 983 1033 l 831 1207 l 771 1207 z m 194 361 b 615 -11 194 113 369 -11 b 1016 73 772 -11 878 21 l 1078 431 l 668 431 l 658 377 l 1008 377 l 964 117 b 618 48 840 70 759 48 b 260 367 408 48 260 151 b 763 848 260 690 502 848 b 1090 792 874 848 973 832 l 1114 849 b 778 907 1011 883 917 907 b 194 361 482 907 194 737 z "},"Ğ":{"ha":1163,"x_min":0,"x_max":0,"o":"m 615 -11 b 1016 73 772 -11 878 21 l 1078 431 l 668 431 l 658 377 l 1008 377 l 964 117 b 618 48 840 70 759 48 b 260 367 408 48 260 151 b 763 848 260 690 502 848 b 1090 792 874 848 973 832 l 1114 849 b 778 907 1011 883 917 907 b 194 361 482 907 194 737 b 615 -11 194 113 369 -11 z m 618 1159 b 779 1003 618 1067 660 1003 b 1004 1190 912 1003 974 1078 l 951 1198 b 783 1053 914 1086 860 1053 b 669 1180 712 1053 669 1081 b 670 1197 669 1185 669 1191 l 619 1194 b 618 1159 618 1182 618 1171 z "},"Ġ":{"ha":1163,"x_min":0,"x_max":0,"o":"m 615 -11 b 1016 73 772 -11 878 21 l 1078 431 l 668 431 l 658 377 l 1008 377 l 964 117 b 618 48 840 70 759 48 b 260 367 408 48 260 151 b 763 848 260 690 502 848 b 1090 792 874 848 973 832 l 1114 849 b 778 907 1011 883 917 907 b 194 361 482 907 194 737 b 615 -11 194 113 369 -11 z m 753 1024 l 821 1024 l 837 1119 l 770 1119 z "},"Ģ":{"ha":1163,"x_min":0,"x_max":0,"o":"m 567 -368 l 647 -233 l 671 -94 l 622 -94 l 599 -224 l 533 -349 z m 194 361 b 615 -11 194 113 369 -11 b 1016 73 772 -11 878 21 l 1078 431 l 668 431 l 658 377 l 1008 377 l 964 117 b 618 48 840 70 759 48 b 260 367 408 48 260 151 b 763 848 260 690 502 848 b 1090 792 874 848 973 832 l 1114 849 b 778 907 1011 883 917 907 b 194 361 482 907 194 737 z "},"H":{"ha":1252,"x_min":0,"x_max":0,"o":"m 332 895 l 177 0 l 240 0 l 309 407 l 1082 407 l 1013 0 l 1074 0 l 1229 895 l 1167 895 l 1092 465 l 320 465 l 394 895 z "},"Ĥ":{"ha":1252,"x_min":0,"x_max":0,"o":"m 596 1040 l 633 999 l 833 1167 l 975 999 l 1017 1033 l 865 1207 l 804 1207 z m 177 0 l 240 0 l 309 407 l 1082 407 l 1013 0 l 1074 0 l 1229 895 l 1167 895 l 1092 465 l 320 465 l 394 895 l 332 895 z "},"I":{"ha":417,"x_min":0,"x_max":0,"o":"m 332 895 l 177 0 l 240 0 l 394 895 z "},"Ì":{"ha":417,"x_min":0,"x_max":0,"o":"m 332 895 l 177 0 l 240 0 l 394 895 z m 161 1139 l 383 1002 l 416 1047 l 200 1192 z "},"Í":{"ha":417,"x_min":0,"x_max":0,"o":"m 332 895 l 177 0 l 240 0 l 394 895 z m 351 1050 l 373 1001 l 671 1136 l 644 1192 z "},"Î":{"ha":417,"x_min":0,"x_max":0,"o":"m 332 895 l 177 0 l 240 0 l 394 895 z m 162 1040 l 199 999 l 399 1167 l 541 999 l 583 1033 l 431 1207 l 370 1207 z "},"Ï":{"ha":417,"x_min":0,"x_max":0,"o":"m 332 895 l 177 0 l 240 0 l 394 895 z m 244 1024 l 312 1024 l 328 1119 l 261 1119 z m 447 1024 l 514 1024 l 531 1119 l 463 1119 z "},"Ĩ":{"ha":417,"x_min":0,"x_max":0,"o":"m 332 895 l 177 0 l 240 0 l 394 895 z m 156 1044 l 195 1018 b 300 1091 230 1063 263 1091 b 381 1052 328 1091 346 1077 b 486 1012 419 1026 447 1012 b 638 1116 543 1012 589 1039 l 596 1140 b 491 1063 560 1086 531 1063 b 410 1098 464 1063 442 1076 b 303 1143 367 1128 344 1143 b 156 1044 254 1143 202 1116 z "},"Ī":{"ha":417,"x_min":0,"x_max":0,"o":"m 332 895 l 177 0 l 240 0 l 394 895 z m 194 1029 l 573 1029 l 582 1082 l 203 1082 z "},"Ĭ":{"ha":417,"x_min":0,"x_max":0,"o":"m 332 895 l 177 0 l 240 0 l 394 895 z m 225 1159 b 386 1003 225 1067 267 1003 b 611 1190 519 1003 581 1078 l 558 1198 b 390 1053 521 1086 467 1053 b 276 1180 319 1053 276 1081 b 277 1197 276 1185 276 1191 l 226 1194 b 225 1159 225 1182 225 1171 z "},"Į":{"ha":417,"x_min":0,"x_max":0,"o":"m 172 -284 b 285 -261 215 -284 251 -275 l 272 -219 b 178 -239 244 -231 217 -239 b 95 -162 125 -239 95 -214 b 240 0 95 -104 128 -53 l 394 895 l 332 895 l 179 12 b 40 -167 77 -39 40 -99 b 172 -284 40 -242 91 -284 z "},"İ":{"ha":417,"x_min":0,"x_max":0,"o":"m 332 895 l 177 0 l 240 0 l 394 895 z m 349 1024 l 417 1024 l 433 1119 l 366 1119 z "},"J":{"ha":871,"x_min":0,"x_max":0,"o":"m 139 117 l 110 60 b 392 -11 169 24 265 -11 b 765 285 538 -11 722 40 l 870 895 l 808 895 l 705 297 b 391 48 674 118 543 48 b 139 117 278 48 189 88 z "},"Ĵ":{"ha":871,"x_min":0,"x_max":0,"o":"m 636 1040 l 673 999 l 873 1167 l 1015 999 l 1057 1033 l 905 1207 l 844 1207 z m 110 60 b 392 -11 169 24 265 -11 b 765 285 538 -11 722 40 l 870 895 l 808 895 l 705 297 b 391 48 674 118 543 48 b 139 117 278 48 189 88 z "},"K":{"ha":1146,"x_min":0,"x_max":0,"o":"m 733 491 l 1043 -12 l 1095 20 l 782 528 l 1225 867 l 1190 912 l 276 212 l 394 895 l 332 895 l 177 0 l 240 0 l 263 133 z "},"Ķ":{"ha":1146,"x_min":0,"x_max":0,"o":"m 549 -368 l 629 -233 l 653 -94 l 604 -94 l 581 -224 l 515 -349 z m 177 0 l 240 0 l 263 133 l 733 491 l 1043 -12 l 1095 20 l 782 528 l 1225 867 l 1190 912 l 276 212 l 394 895 l 332 895 z "},"L":{"ha":924,"x_min":0,"x_max":0,"o":"m 332 895 l 177 0 l 896 0 l 906 56 l 249 56 l 394 895 z "},"Ĺ":{"ha":924,"x_min":0,"x_max":0,"o":"m 351 1050 l 373 1001 l 671 1136 l 644 1192 z m 177 0 l 896 0 l 906 56 l 249 56 l 394 895 l 332 895 z "},"Ļ":{"ha":924,"x_min":0,"x_max":0,"o":"m 465 -369 l 544 -234 l 569 -94 l 519 -94 l 497 -224 l 431 -350 z m 177 0 l 896 0 l 906 56 l 249 56 l 394 895 l 332 895 z "},"Ľ":{"ha":924,"x_min":0,"x_max":0,"o":"m 719 903 l 648 659 l 698 647 l 778 888 z m 177 0 l 896 0 l 906 56 l 249 56 l 394 895 l 332 895 z "},"M":{"ha":1447,"x_min":0,"x_max":0,"o":"m 332 895 l 177 0 l 238 0 l 383 833 l 715 71 l 790 71 l 1351 828 l 1209 0 l 1269 0 l 1424 895 l 1328 895 l 758 121 l 426 895 z "},"N":{"ha":1188,"x_min":0,"x_max":0,"o":"m 332 895 l 177 0 l 239 0 l 381 822 l 935 0 l 1010 0 l 1165 895 l 1103 895 l 960 67 l 404 895 z "},"Ñ":{"ha":1188,"x_min":0,"x_max":0,"o":"m 332 895 l 177 0 l 239 0 l 381 822 l 935 0 l 1010 0 l 1165 895 l 1103 895 l 960 67 l 404 895 z m 543 1044 l 583 1018 b 688 1091 617 1063 651 1091 b 768 1052 716 1091 733 1077 b 874 1012 806 1026 835 1012 b 1026 1116 931 1012 976 1039 l 983 1140 b 878 1063 947 1086 918 1063 b 797 1098 851 1063 830 1076 b 691 1143 755 1128 732 1143 b 543 1044 642 1143 590 1116 z "},"Ń":{"ha":1188,"x_min":0,"x_max":0,"o":"m 744 1050 l 766 1001 l 1064 1136 l 1038 1192 z m 177 0 l 239 0 l 381 822 l 935 0 l 1010 0 l 1165 895 l 1103 895 l 960 67 l 404 895 l 332 895 z "},"Ņ":{"ha":1188,"x_min":0,"x_max":0,"o":"m 530 -368 l 610 -233 l 634 -94 l 585 -94 l 562 -224 l 496 -349 z m 177 0 l 239 0 l 381 822 l 935 0 l 1010 0 l 1165 895 l 1103 895 l 960 67 l 404 895 l 332 895 z "},"Ň":{"ha":1188,"x_min":0,"x_max":0,"o":"m 598 1187 l 749 1016 l 809 1016 l 1013 1184 l 977 1222 l 781 1057 l 640 1222 z m 177 0 l 239 0 l 381 822 l 935 0 l 1010 0 l 1165 895 l 1103 895 l 960 67 l 404 895 l 332 895 z "},"O":{"ha":1271,"x_min":0,"x_max":0,"o":"m 781 907 b 196 378 424 907 196 687 b 645 -11 196 147 361 -11 b 1226 500 1033 -11 1226 205 b 781 907 1226 758 1049 907 z m 263 381 b 776 848 263 644 449 848 b 1160 499 1019 848 1160 714 b 653 48 1160 231 990 48 b 263 381 403 48 263 184 z "},"Ò":{"ha":1271,"x_min":0,"x_max":0,"o":"m 781 907 b 196 378 424 907 196 687 b 645 -11 196 147 361 -11 b 1226 500 1033 -11 1226 205 b 781 907 1226 758 1049 907 z m 263 381 b 776 848 263 644 449 848 b 1160 499 1019 848 1160 714 b 653 48 1160 231 990 48 b 263 381 403 48 263 184 z m 633 1139 l 856 1002 l 888 1047 l 672 1192 z "},"Ó":{"ha":1271,"x_min":0,"x_max":0,"o":"m 745 1050 l 767 1001 l 1065 1136 l 1039 1192 z m 196 378 b 645 -11 196 147 361 -11 b 1226 500 1033 -11 1226 205 b 781 907 1226 758 1049 907 b 196 378 424 907 196 687 z m 263 381 b 776 848 263 644 449 848 b 1160 499 1019 848 1160 714 b 653 48 1160 231 990 48 b 263 381 403 48 263 184 z "},"Ô":{"ha":1271,"x_min":0,"x_max":0,"o":"m 581 1040 l 618 999 l 818 1167 l 960 999 l 1002 1033 l 850 1207 l 790 1207 z m 196 378 b 645 -11 196 147 361 -11 b 1226 500 1033 -11 1226 205 b 781 907 1226 758 1049 907 b 196 378 424 907 196 687 z m 263 381 b 776 848 263 644 449 848 b 1160 499 1019 848 1160 714 b 653 48 1160 231 990 48 b 263 381 403 48 263 184 z "},"Õ":{"ha":1271,"x_min":0,"x_max":0,"o":"m 781 907 b 196 378 424 907 196 687 b 645 -11 196 147 361 -11 b 1226 500 1033 -11 1226 205 b 781 907 1226 758 1049 907 z m 263 381 b 776 848 263 644 449 848 b 1160 499 1019 848 1160 714 b 653 48 1160 231 990 48 b 263 381 403 48 263 184 z m 580 1044 l 619 1018 b 724 1091 654 1063 688 1091 b 805 1052 753 1091 770 1077 b 910 1012 843 1026 872 1012 b 1063 1116 967 1012 1013 1039 l 1020 1140 b 915 1063 984 1086 955 1063 b 834 1098 888 1063 867 1076 b 728 1143 792 1128 769 1143 b 580 1044 678 1143 626 1116 z "},"Ö":{"ha":1271,"x_min":0,"x_max":0,"o":"m 670 1119 l 653 1024 l 721 1024 l 737 1119 z m 196 378 b 645 -11 196 147 361 -11 b 1226 500 1033 -11 1226 205 b 781 907 1226 758 1049 907 b 196 378 424 907 196 687 z m 263 381 b 776 848 263 644 449 848 b 1160 499 1019 848 1160 714 b 653 48 1160 231 990 48 b 263 381 403 48 263 184 z m 856 1024 l 923 1024 l 940 1119 l 872 1119 z "},"Ō":{"ha":1271,"x_min":0,"x_max":0,"o":"m 625 1082 l 616 1029 l 994 1029 l 1003 1082 z m 196 378 b 645 -11 196 147 361 -11 b 1226 500 1033 -11 1226 205 b 781 907 1226 758 1049 907 b 196 378 424 907 196 687 z m 263 381 b 776 848 263 644 449 848 b 1160 499 1019 848 1160 714 b 653 48 1160 231 990 48 b 263 381 403 48 263 184 z "},"Ŏ":{"ha":1271,"x_min":0,"x_max":0,"o":"m 781 907 b 196 378 424 907 196 687 b 645 -11 196 147 361 -11 b 1226 500 1033 -11 1226 205 b 781 907 1226 758 1049 907 z m 263 381 b 776 848 263 644 449 848 b 1160 499 1019 848 1160 714 b 653 48 1160 231 990 48 b 263 381 403 48 263 184 z m 656 1159 b 817 1003 656 1067 698 1003 b 1042 1190 949 1003 1012 1078 l 988 1198 b 820 1053 951 1086 897 1053 b 707 1180 749 1053 707 1081 b 708 1197 707 1185 707 1191 l 657 1194 b 656 1159 656 1182 656 1171 z "},"Ő":{"ha":1271,"x_min":0,"x_max":0,"o":"m 615 1037 l 651 1000 l 896 1207 l 854 1251 z m 196 378 b 645 -11 196 147 361 -11 b 1226 500 1033 -11 1226 205 b 781 907 1226 758 1049 907 b 196 378 424 907 196 687 z m 263 381 b 776 848 263 644 449 848 b 1160 499 1019 848 1160 714 b 653 48 1160 231 990 48 b 263 381 403 48 263 184 z m 872 1044 l 906 1003 l 1163 1192 l 1126 1240 z "},"P":{"ha":1104,"x_min":0,"x_max":0,"o":"m 804 895 l 332 895 l 177 0 l 240 0 l 285 267 l 692 267 b 1126 622 982 267 1126 377 b 804 895 1126 791 1009 895 z m 296 325 l 385 838 l 793 838 b 1060 609 981 838 1060 746 b 702 325 1060 438 958 325 z "},"Q":{"ha":1271,"x_min":0,"x_max":0,"o":"m 781 907 b 196 378 424 907 196 687 b 645 -11 196 147 361 -11 b 831 8 713 -11 774 -5 l 897 -172 l 949 -152 l 885 22 b 1226 500 1113 94 1226 274 b 781 907 1226 758 1049 907 z m 263 381 b 776 848 263 644 449 848 b 1160 499 1019 848 1160 714 b 865 78 1160 294 1061 140 l 771 331 l 719 311 l 810 63 b 653 48 763 53 710 48 b 263 381 403 48 263 184 z "},"R":{"ha":1142,"x_min":0,"x_max":0,"o":"m 728 313 b 841 323 767 313 805 316 l 945 -11 l 1005 6 l 899 338 b 1124 647 1032 381 1124 482 b 775 895 1124 783 1042 895 l 332 895 l 177 0 l 240 0 l 294 313 z m 303 369 l 385 838 l 778 838 b 1058 640 984 838 1058 763 b 727 369 1058 473 936 369 z "},"Ŕ":{"ha":1142,"x_min":0,"x_max":0,"o":"m 647 1050 l 669 1001 l 967 1136 l 941 1192 z m 177 0 l 240 0 l 294 313 l 728 313 b 841 323 767 313 805 316 l 945 -11 l 1005 6 l 899 338 b 1124 647 1032 381 1124 482 b 775 895 1124 783 1042 895 l 332 895 z m 303 369 l 385 838 l 778 838 b 1058 640 984 838 1058 763 b 727 369 1058 473 936 369 z "},"Ŗ":{"ha":1142,"x_min":0,"x_max":0,"o":"m 515 -368 l 595 -233 l 619 -94 l 570 -94 l 547 -224 l 481 -349 z m 177 0 l 240 0 l 294 313 l 728 313 b 841 323 767 313 805 316 l 945 -11 l 1005 6 l 899 338 b 1124 647 1032 381 1124 482 b 775 895 1124 783 1042 895 l 332 895 z m 303 369 l 385 838 l 778 838 b 1058 640 984 838 1058 763 b 727 369 1058 473 936 369 z "},"Ř":{"ha":1142,"x_min":0,"x_max":0,"o":"m 532 1187 l 683 1016 l 743 1016 l 947 1184 l 911 1222 l 715 1057 l 574 1222 z m 177 0 l 240 0 l 294 313 l 728 313 b 841 323 767 313 805 316 l 945 -11 l 1005 6 l 899 338 b 1124 647 1032 381 1124 482 b 775 895 1124 783 1042 895 l 332 895 z m 303 369 l 385 838 l 778 838 b 1058 640 984 838 1058 763 b 727 369 1058 473 936 369 z "},"S":{"ha":1039,"x_min":0,"x_max":0,"o":"m 510 -11 b 972 297 807 -11 972 76 b 629 497 972 472 799 489 b 302 640 464 505 302 506 b 664 850 302 775 418 850 b 979 792 794 850 913 815 l 999 847 b 654 907 935 871 808 907 b 238 638 408 907 238 819 b 597 439 238 456 417 447 b 910 282 757 432 910 424 b 521 47 910 119 761 47 b 156 122 362 47 228 89 l 135 64 b 510 -11 217 24 358 -11 z "},"Ś":{"ha":1039,"x_min":0,"x_max":0,"o":"m 611 1050 l 633 1001 l 931 1136 l 905 1192 z m 135 64 b 510 -11 217 24 358 -11 b 972 297 807 -11 972 76 b 629 497 972 472 799 489 b 302 640 464 505 302 506 b 664 850 302 775 418 850 b 979 792 794 850 913 815 l 999 847 b 654 907 935 871 808 907 b 238 638 408 907 238 819 b 597 439 238 456 417 447 b 910 282 757 432 910 424 b 521 47 910 119 761 47 b 156 122 362 47 228 89 z "},"Ŝ":{"ha":1039,"x_min":0,"x_max":0,"o":"m 476 1040 l 513 999 l 713 1167 l 855 999 l 897 1033 l 744 1207 l 684 1207 z m 135 64 b 510 -11 217 24 358 -11 b 972 297 807 -11 972 76 b 629 497 972 472 799 489 b 302 640 464 505 302 506 b 664 850 302 775 418 850 b 979 792 794 850 913 815 l 999 847 b 654 907 935 871 808 907 b 238 638 408 907 238 819 b 597 439 238 456 417 447 b 910 282 757 432 910 424 b 521 47 910 119 761 47 b 156 122 362 47 228 89 z "},"Ş":{"ha":1039,"x_min":0,"x_max":0,"o":"m 353 -222 l 339 -267 b 448 -283 362 -275 401 -283 b 632 -129 563 -283 632 -228 b 585 -9 632 -81 619 -41 b 972 297 834 5 972 95 b 629 497 972 472 799 489 b 302 640 464 505 302 506 b 664 850 302 775 418 850 b 979 792 794 850 913 815 l 999 847 b 654 907 935 871 808 907 b 238 638 408 907 238 819 b 597 439 238 456 417 447 b 910 282 757 432 910 424 b 521 47 910 119 761 47 b 156 122 362 47 228 89 l 135 64 b 506 -11 216 25 356 -10 b 579 -129 567 -42 579 -87 b 456 -238 579 -204 522 -238 b 353 -222 414 -238 376 -230 z "},"Š":{"ha":1039,"x_min":0,"x_max":0,"o":"m 491 1187 l 642 1016 l 702 1016 l 906 1184 l 870 1222 l 674 1057 l 533 1222 z m 135 64 b 510 -11 217 24 358 -11 b 972 297 807 -11 972 76 b 629 497 972 472 799 489 b 302 640 464 505 302 506 b 664 850 302 775 418 850 b 979 792 794 850 913 815 l 999 847 b 654 907 935 871 808 907 b 238 638 408 907 238 819 b 597 439 238 456 417 447 b 910 282 757 432 910 424 b 521 47 910 119 761 47 b 156 122 362 47 228 89 z "},"Ș":{"ha":1039,"x_min":0,"x_max":0,"o":"m 471 -368 l 551 -233 l 575 -94 l 526 -94 l 503 -224 l 437 -349 z m 135 64 b 510 -11 217 24 358 -11 b 972 297 807 -11 972 76 b 629 497 972 472 799 489 b 302 640 464 505 302 506 b 664 850 302 775 418 850 b 979 792 794 850 913 815 l 999 847 b 654 907 935 871 808 907 b 238 638 408 907 238 819 b 597 439 238 456 417 447 b 910 282 757 432 910 424 b 521 47 910 119 761 47 b 156 122 362 47 228 89 z "},"T":{"ha":965,"x_min":0,"x_max":0,"o":"m 585 838 l 440 0 l 502 0 l 647 838 l 1081 838 l 1090 896 l 185 896 l 174 838 z "},"Ţ":{"ha":965,"x_min":0,"x_max":0,"o":"m 388 -368 l 467 -233 l 492 -94 l 442 -94 l 419 -224 l 353 -349 z m 174 838 l 585 838 l 440 0 l 502 0 l 647 838 l 1081 838 l 1090 896 l 185 896 z "},"Ť":{"ha":965,"x_min":0,"x_max":0,"o":"m 458 1187 l 608 1016 l 669 1016 l 872 1184 l 837 1222 l 640 1057 l 499 1222 z m 174 838 l 585 838 l 440 0 l 502 0 l 647 838 l 1081 838 l 1090 896 l 185 896 z "},"U":{"ha":1159,"x_min":0,"x_max":0,"o":"m 226 408 b 217 301 219 369 217 333 b 574 -11 217 39 421 -11 b 1074 409 783 -11 1014 64 l 1158 895 l 1096 895 l 1013 415 b 576 48 964 134 779 48 b 281 313 426 48 281 102 b 290 415 281 344 283 377 l 373 895 l 310 895 z "},"Ù":{"ha":1159,"x_min":0,"x_max":0,"o":"m 226 408 b 217 301 219 369 217 333 b 574 -11 217 39 421 -11 b 1074 409 783 -11 1014 64 l 1158 895 l 1096 895 l 1013 415 b 576 48 964 134 779 48 b 281 313 426 48 281 102 b 290 415 281 344 283 377 l 373 895 l 310 895 z m 562 1139 l 784 1002 l 817 1047 l 601 1192 z "},"Ú":{"ha":1159,"x_min":0,"x_max":0,"o":"m 690 1050 l 712 1001 l 1010 1136 l 983 1192 z m 217 301 b 574 -11 217 39 421 -11 b 1074 409 783 -11 1014 64 l 1158 895 l 1096 895 l 1013 415 b 576 48 964 134 779 48 b 281 313 426 48 281 102 b 290 415 281 344 283 377 l 373 895 l 310 895 l 226 408 b 217 301 219 369 217 333 z "},"Û":{"ha":1159,"x_min":0,"x_max":0,"o":"m 544 1040 l 581 999 l 781 1167 l 924 999 l 965 1033 l 813 1207 l 753 1207 z m 217 301 b 574 -11 217 39 421 -11 b 1074 409 783 -11 1014 64 l 1158 895 l 1096 895 l 1013 415 b 576 48 964 134 779 48 b 281 313 426 48 281 102 b 290 415 281 344 283 377 l 373 895 l 310 895 l 226 408 b 217 301 219 369 217 333 z "},"Ü":{"ha":1159,"x_min":0,"x_max":0,"o":"m 633 1119 l 616 1024 l 683 1024 l 699 1119 z m 217 301 b 574 -11 217 39 421 -11 b 1074 409 783 -11 1014 64 l 1158 895 l 1096 895 l 1013 415 b 576 48 964 134 779 48 b 281 313 426 48 281 102 b 290 415 281 344 283 377 l 373 895 l 310 895 l 226 408 b 217 301 219 369 217 333 z m 819 1024 l 885 1024 l 902 1119 l 835 1119 z "},"Ũ":{"ha":1159,"x_min":0,"x_max":0,"o":"m 226 408 b 217 301 219 369 217 333 b 574 -11 217 39 421 -11 b 1074 409 783 -11 1014 64 l 1158 895 l 1096 895 l 1013 415 b 576 48 964 134 779 48 b 281 313 426 48 281 102 b 290 415 281 344 283 377 l 373 895 l 310 895 z m 522 1044 l 562 1018 b 667 1091 597 1063 630 1091 b 747 1052 695 1091 713 1077 b 853 1012 785 1026 814 1012 b 1005 1116 910 1012 956 1039 l 963 1140 b 858 1063 926 1086 897 1063 b 776 1098 831 1063 809 1076 b 670 1143 734 1128 711 1143 b 522 1044 621 1143 569 1116 z "},"Ū":{"ha":1159,"x_min":0,"x_max":0,"o":"m 226 408 b 217 301 219 369 217 333 b 574 -11 217 39 421 -11 b 1074 409 783 -11 1014 64 l 1158 895 l 1096 895 l 1013 415 b 576 48 964 134 779 48 b 281 313 426 48 281 102 b 290 415 281 344 283 377 l 373 895 l 310 895 z m 563 1029 l 941 1029 l 950 1082 l 572 1082 z "},"Ŭ":{"ha":1159,"x_min":0,"x_max":0,"o":"m 226 408 b 217 301 219 369 217 333 b 574 -11 217 39 421 -11 b 1074 409 783 -11 1014 64 l 1158 895 l 1096 895 l 1013 415 b 576 48 964 134 779 48 b 281 313 426 48 281 102 b 290 415 281 344 283 377 l 373 895 l 310 895 z m 590 1159 b 751 1003 590 1067 632 1003 b 976 1190 883 1003 946 1078 l 922 1198 b 754 1053 885 1086 831 1053 b 641 1180 683 1053 641 1081 b 642 1197 641 1185 641 1191 l 591 1194 b 590 1159 590 1182 590 1171 z "},"Ů":{"ha":1159,"x_min":0,"x_max":0,"o":"m 758 990 b 916 1122 847 990 916 1046 b 790 1231 915 1190 869 1231 b 633 1097 698 1231 633 1172 b 758 990 633 1032 676 990 z m 217 301 b 574 -11 217 39 421 -11 b 1074 409 783 -11 1014 64 l 1158 895 l 1096 895 l 1013 415 b 576 48 964 134 779 48 b 281 313 426 48 281 102 b 290 415 281 344 283 377 l 373 895 l 310 895 l 226 408 b 217 301 219 369 217 333 z m 682 1102 b 786 1190 682 1149 726 1190 b 866 1117 840 1190 866 1160 b 762 1031 866 1070 821 1031 b 682 1102 706 1031 682 1060 z "},"Ű":{"ha":1159,"x_min":0,"x_max":0,"o":"m 226 408 b 217 301 219 369 217 333 b 574 -11 217 39 421 -11 b 1074 409 783 -11 1014 64 l 1158 895 l 1096 895 l 1013 415 b 576 48 964 134 779 48 b 281 313 426 48 281 102 b 290 415 281 344 283 377 l 373 895 l 310 895 z m 578 1037 l 615 1000 l 860 1207 l 818 1251 z m 835 1044 l 869 1003 l 1126 1192 l 1090 1240 z "},"Ų":{"ha":1159,"x_min":0,"x_max":0,"o":"m 226 408 b 217 301 219 369 217 333 b 555 -11 217 50 404 -6 b 453 -167 483 -57 453 -108 b 585 -284 453 -242 504 -284 b 698 -261 628 -284 664 -275 l 685 -219 b 591 -239 657 -231 631 -239 b 508 -162 538 -239 508 -214 b 651 -8 508 -106 541 -58 b 1074 409 837 11 1021 106 l 1158 895 l 1096 895 l 1013 415 b 576 48 964 134 779 48 b 281 313 426 48 281 102 b 290 415 281 344 283 377 l 373 895 l 310 895 z "},"V":{"ha":1031,"x_min":0,"x_max":0,"o":"m 196 886 l 487 0 l 574 0 l 1140 876 l 1086 908 l 536 55 l 256 906 z "},"W":{"ha":1482,"x_min":0,"x_max":0,"o":"m 227 892 l 394 0 l 484 0 l 898 841 l 1024 0 l 1118 0 l 1563 882 l 1508 907 l 1077 53 l 950 895 l 858 895 l 446 56 l 290 905 z "},"Ŵ":{"ha":1482,"x_min":0,"x_max":0,"o":"m 693 1040 l 730 999 l 930 1167 l 1072 999 l 1114 1033 l 962 1207 l 901 1207 z m 227 892 l 394 0 l 484 0 l 898 841 l 1024 0 l 1118 0 l 1563 882 l 1508 907 l 1077 53 l 950 895 l 858 895 l 446 56 l 290 905 z "},"Ẁ":{"ha":1482,"x_min":0,"x_max":0,"o":"m 227 892 l 394 0 l 484 0 l 898 841 l 1024 0 l 1118 0 l 1563 882 l 1508 907 l 1077 53 l 950 895 l 858 895 l 446 56 l 290 905 z m 708 1139 l 931 1002 l 963 1047 l 747 1192 z "},"Ẃ":{"ha":1482,"x_min":0,"x_max":0,"o":"m 876 1050 l 898 1001 l 1196 1136 l 1169 1192 z m 227 892 l 394 0 l 484 0 l 898 841 l 1024 0 l 1118 0 l 1563 882 l 1508 907 l 1077 53 l 950 895 l 858 895 l 446 56 l 290 905 z "},"Ẅ":{"ha":1482,"x_min":0,"x_max":0,"o":"m 794 1119 l 777 1024 l 844 1024 l 860 1119 z m 227 892 l 394 0 l 484 0 l 898 841 l 1024 0 l 1118 0 l 1563 882 l 1508 907 l 1077 53 l 950 895 l 858 895 l 446 56 l 290 905 z m 980 1024 l 1047 1024 l 1063 1119 l 996 1119 z "},"X":{"ha":1067,"x_min":0,"x_max":0,"o":"m 74 32 l 114 -13 l 613 422 l 972 -10 l 1019 27 l 660 460 l 1123 861 l 1085 904 l 623 504 l 294 904 l 244 865 l 575 465 z "},"Y":{"ha":1065,"x_min":0,"x_max":0,"o":"m 558 247 l 515 0 l 577 0 l 620 244 l 1178 866 l 1135 905 l 596 304 l 241 906 l 189 873 z "},"Ý":{"ha":1065,"x_min":0,"x_max":0,"o":"m 558 247 l 515 0 l 577 0 l 620 244 l 1178 866 l 1135 905 l 596 304 l 241 906 l 189 873 z m 633 1050 l 655 1001 l 953 1136 l 926 1192 z "},"Ŷ":{"ha":1065,"x_min":0,"x_max":0,"o":"m 558 247 l 515 0 l 577 0 l 620 244 l 1178 866 l 1135 905 l 596 304 l 241 906 l 189 873 z m 485 1040 l 522 999 l 722 1167 l 864 999 l 906 1033 l 753 1207 l 693 1207 z "},"Ÿ":{"ha":1065,"x_min":0,"x_max":0,"o":"m 558 247 l 515 0 l 577 0 l 620 244 l 1178 866 l 1135 905 l 596 304 l 241 906 l 189 873 z m 548 1024 l 615 1024 l 631 1119 l 565 1119 z m 751 1024 l 817 1024 l 834 1119 l 767 1119 z "},"Z":{"ha":1017,"x_min":0,"x_max":0,"o":"m 90 71 l 78 0 l 954 0 l 964 58 l 160 58 l 1081 822 l 1094 895 l 276 895 l 267 838 l 1015 838 z "},"Ź":{"ha":1017,"x_min":0,"x_max":0,"o":"m 609 1050 l 631 1001 l 929 1136 l 903 1192 z m 78 0 l 954 0 l 964 58 l 160 58 l 1081 822 l 1094 895 l 276 895 l 267 838 l 1015 838 l 90 71 z "},"Ż":{"ha":1017,"x_min":0,"x_max":0,"o":"m 90 71 l 78 0 l 954 0 l 964 58 l 160 58 l 1081 822 l 1094 895 l 276 895 l 267 838 l 1015 838 z m 670 1024 l 738 1024 l 753 1119 l 687 1119 z "},"Ž":{"ha":1017,"x_min":0,"x_max":0,"o":"m 520 1187 l 671 1016 l 731 1016 l 935 1184 l 899 1222 l 703 1057 l 562 1222 z m 78 0 l 954 0 l 964 58 l 160 58 l 1081 822 l 1094 895 l 276 895 l 267 838 l 1015 838 l 90 71 z "},"Æ":{"ha":1553,"x_min":0,"x_max":0,"o":"m 30 28 l 76 -10 l 293 222 l 761 222 l 722 0 l 1465 0 l 1474 56 l 795 56 l 858 425 l 1416 425 l 1426 479 l 868 479 l 931 840 l 1596 840 l 1606 895 l 845 895 z m 344 276 l 867 834 l 770 276 z "},"Ǽ":{"ha":1553,"x_min":0,"x_max":0,"o":"m 887 1050 l 909 1001 l 1207 1136 l 1181 1192 z m 30 28 l 76 -10 l 293 222 l 761 222 l 722 0 l 1465 0 l 1474 56 l 795 56 l 858 425 l 1416 425 l 1426 479 l 868 479 l 931 840 l 1596 840 l 1606 895 l 845 895 z m 344 276 l 867 834 l 770 276 z "},"Ð":{"ha":1219,"x_min":0,"x_max":0,"o":"m 163 403 l 303 403 l 234 0 l 594 0 b 1177 537 1011 0 1177 197 b 754 895 1177 789 1032 895 l 389 895 l 313 456 l 172 456 z m 306 58 l 365 403 l 650 403 l 659 456 l 374 456 l 440 838 l 749 838 b 1111 526 1006 838 1111 737 b 604 58 1111 251 982 58 z "},"Ø":{"ha":1271,"x_min":0,"x_max":0,"o":"m 188 30 l 225 -11 l 333 81 b 645 -11 409 22 515 -11 b 1226 500 1033 -11 1226 205 b 1137 767 1226 610 1194 699 l 1253 867 l 1216 908 l 1097 806 b 781 907 1019 872 910 907 b 196 378 424 907 196 687 b 292 119 196 274 229 185 z m 263 381 b 776 848 263 644 449 848 b 1048 764 890 848 983 818 l 342 162 b 263 381 290 219 263 294 z m 384 124 l 1087 724 b 1160 499 1135 667 1160 590 b 653 48 1160 231 990 48 b 384 124 540 48 449 76 z "},"Ǿ":{"ha":1271,"x_min":0,"x_max":0,"o":"m 225 -11 l 333 81 b 645 -11 409 22 515 -11 b 1226 500 1033 -11 1226 205 b 1137 767 1226 610 1194 699 l 1253 867 l 1216 908 l 1097 806 b 781 907 1019 872 910 907 b 196 378 424 907 196 687 b 292 119 196 274 229 185 l 188 30 z m 263 381 b 776 848 263 644 449 848 b 1048 764 890 848 983 818 l 342 162 b 263 381 290 219 263 294 z m 384 124 l 1087 724 b 1160 499 1135 667 1160 590 b 653 48 1160 231 990 48 b 384 124 540 48 449 76 z m 753 1050 l 776 1001 l 1074 1136 l 1047 1192 z "},"Þ":{"ha":1135,"x_min":0,"x_max":0,"o":"m 331 895 l 176 0 l 239 0 l 265 147 l 681 147 b 1097 493 940 147 1097 245 b 785 756 1097 655 980 756 l 369 756 l 394 895 z m 274 203 l 360 701 l 783 701 b 1033 482 955 701 1033 609 b 690 203 1033 342 960 203 z "},"Đ":{"ha":1219,"x_min":0,"x_max":0,"o":"m 163 403 l 303 403 l 234 0 l 594 0 b 1177 537 1011 0 1177 197 b 754 895 1177 789 1032 895 l 389 895 l 313 456 l 172 456 z m 306 58 l 365 403 l 650 403 l 659 456 l 374 456 l 440 838 l 749 838 b 1111 526 1006 838 1111 737 b 604 58 1111 251 982 58 z "},"Ħ":{"ha":1363,"x_min":0,"x_max":0,"o":"m 255 720 l 246 667 l 348 667 l 233 0 l 295 0 l 365 407 l 1138 407 l 1068 0 l 1130 0 l 1245 667 l 1344 667 l 1353 720 l 1254 720 l 1285 895 l 1223 895 l 1192 720 l 420 720 l 450 895 l 388 895 l 357 720 z m 376 465 l 410 667 l 1183 667 l 1148 465 z "},"Ĳ":{"ha":1288,"x_min":0,"x_max":0,"o":"m 332 895 l 177 0 l 240 0 l 394 895 z m 527 60 b 808 -11 586 24 681 -11 b 1181 285 954 -11 1139 40 l 1287 895 l 1224 895 l 1122 297 b 808 48 1090 118 960 48 b 556 117 694 48 606 88 z "},"Ŀ":{"ha":924,"x_min":0,"x_max":0,"o":"m 332 895 l 177 0 l 896 0 l 906 56 l 249 56 l 394 895 z m 634 411 l 703 411 l 726 542 l 657 542 z "},"Ł":{"ha":1004,"x_min":0,"x_max":0,"o":"m 175 383 l 193 333 l 325 389 l 258 0 l 976 0 l 986 56 l 330 56 l 392 417 l 663 531 l 642 579 l 403 478 l 475 895 l 413 895 l 335 450 z "},"Ŋ":{"ha":1202,"x_min":0,"x_max":0,"o":"m 722 -231 l 733 -285 b 1021 -23 882 -248 996 -167 l 1179 895 l 1117 895 l 977 88 l 410 895 l 332 895 l 177 0 l 240 0 l 383 826 l 964 1 b 722 -231 940 -136 833 -192 z "},"Œ":{"ha":1633,"x_min":0,"x_max":0,"o":"m 788 895 b 200 371 409 895 200 682 b 648 0 200 153 345 0 l 1514 0 l 1524 57 l 863 57 l 926 424 l 1465 424 l 1475 481 l 937 481 l 999 838 l 1645 838 l 1655 895 z m 267 373 b 772 837 267 619 413 837 l 935 837 l 800 58 l 648 58 b 267 373 388 58 267 192 z "},"Ŧ":{"ha":965,"x_min":0,"x_max":0,"o":"m 313 463 l 303 410 l 510 410 l 440 0 l 502 0 l 573 410 l 779 410 l 788 463 l 582 463 l 647 838 l 1081 838 l 1090 896 l 185 896 l 174 838 l 585 838 l 519 463 z "},"Ω":{"ha":1237,"x_min":0,"x_max":0,"o":"m 367 57 l 120 57 l 110 0 l 455 0 l 464 55 b 277 386 346 128 277 238 b 760 849 277 713 538 849 b 1113 513 964 849 1113 738 b 783 55 1113 313 1003 175 l 773 0 l 1127 0 l 1137 57 l 885 57 b 1181 519 1070 166 1181 306 b 767 907 1181 770 1005 907 b 210 382 494 907 210 733 b 367 57 210 235 269 137 z "},"a":{"ha":898,"x_min":0,"x_max":0,"o":"m 651 408 b 138 153 290 408 138 311 b 347 -12 138 33 238 -12 b 724 112 508 -12 633 54 l 714 0 l 764 0 l 839 434 b 845 500 843 457 845 479 b 598 689 845 624 766 689 b 293 632 459 689 351 655 l 309 579 b 588 633 362 601 470 633 b 786 491 715 633 786 597 b 774 402 786 467 780 424 b 651 408 740 405 691 408 z m 202 155 b 652 357 202 282 335 357 b 767 351 690 357 731 354 l 735 176 b 353 42 640 111 502 42 b 202 155 260 42 202 85 z "},"à":{"ha":898,"x_min":0,"x_max":0,"o":"m 651 408 b 138 153 290 408 138 311 b 347 -12 138 33 238 -12 b 724 112 508 -12 633 54 l 714 0 l 764 0 l 839 434 b 845 500 843 457 845 479 b 598 689 845 624 766 689 b 293 632 459 689 351 655 l 309 579 b 588 633 362 601 470 633 b 786 491 715 633 786 597 b 774 402 786 467 780 424 b 651 408 740 405 691 408 z m 202 155 b 652 357 202 282 335 357 b 767 351 690 357 731 354 l 735 176 b 353 42 640 111 502 42 b 202 155 260 42 202 85 z m 487 955 l 663 765 l 702 799 l 539 999 z "},"á":{"ha":898,"x_min":0,"x_max":0,"o":"m 651 408 b 138 153 290 408 138 311 b 347 -12 138 33 238 -12 b 724 112 508 -12 633 54 l 714 0 l 764 0 l 839 434 b 845 500 843 457 845 479 b 598 689 845 624 766 689 b 293 632 459 689 351 655 l 309 579 b 588 633 362 601 470 633 b 786 491 715 633 786 597 b 774 402 786 467 780 424 b 651 408 740 405 691 408 z m 202 155 b 652 357 202 282 335 357 b 767 351 690 357 731 354 l 735 176 b 353 42 640 111 502 42 b 202 155 260 42 202 85 z m 542 802 l 575 765 l 805 951 l 763 997 z "},"â":{"ha":898,"x_min":0,"x_max":0,"o":"m 651 408 b 138 153 290 408 138 311 b 347 -12 138 33 238 -12 b 724 112 508 -12 633 54 l 714 0 l 764 0 l 839 434 b 845 500 843 457 845 479 b 598 689 845 624 766 689 b 293 632 459 689 351 655 l 309 579 b 588 633 362 601 470 633 b 786 491 715 633 786 597 b 774 402 786 467 780 424 b 651 408 740 405 691 408 z m 202 155 b 652 357 202 282 335 357 b 767 351 690 357 731 354 l 735 176 b 353 42 640 111 502 42 b 202 155 260 42 202 85 z m 425 801 l 466 766 l 640 949 l 747 765 l 798 793 l 680 988 l 607 988 z "},"ã":{"ha":898,"x_min":0,"x_max":0,"o":"m 651 408 b 138 153 290 408 138 311 b 347 -12 138 33 238 -12 b 724 112 508 -12 633 54 l 714 0 l 764 0 l 839 434 b 845 500 843 457 845 479 b 598 689 845 624 766 689 b 293 632 459 689 351 655 l 309 579 b 588 633 362 601 470 633 b 786 491 715 633 786 597 b 774 402 786 467 780 424 b 651 408 740 405 691 408 z m 202 155 b 652 357 202 282 335 357 b 767 351 690 357 731 354 l 735 176 b 353 42 640 111 502 42 b 202 155 260 42 202 85 z m 390 809 l 429 783 b 527 857 461 829 493 857 b 606 818 555 857 571 843 b 710 777 642 791 670 777 b 851 881 761 777 801 799 l 809 906 b 711 828 775 851 748 828 b 630 866 683 828 662 842 b 530 908 590 896 569 908 b 390 809 481 908 433 883 z "},"ä":{"ha":898,"x_min":0,"x_max":0,"o":"m 651 408 b 138 153 290 408 138 311 b 347 -12 138 33 238 -12 b 724 112 508 -12 633 54 l 714 0 l 764 0 l 839 434 b 845 500 843 457 845 479 b 598 689 845 624 766 689 b 293 632 459 689 351 655 l 309 579 b 588 633 362 601 470 633 b 786 491 715 633 786 597 b 774 402 786 467 780 424 b 651 408 740 405 691 408 z m 202 155 b 652 357 202 282 335 357 b 767 351 690 357 731 354 l 735 176 b 353 42 640 111 502 42 b 202 155 260 42 202 85 z m 478 787 l 539 787 l 556 890 l 495 890 z m 662 787 l 724 787 l 741 890 l 679 890 z "},"å":{"ha":898,"x_min":0,"x_max":0,"o":"m 651 408 b 138 153 290 408 138 311 b 347 -12 138 33 238 -12 b 724 112 508 -12 633 54 l 714 0 l 764 0 l 839 434 b 845 500 843 457 845 479 b 598 689 845 624 766 689 b 293 632 459 689 351 655 l 309 579 b 588 633 362 601 470 633 b 786 491 715 633 786 597 b 774 402 786 467 780 424 b 651 408 740 405 691 408 z m 202 155 b 652 357 202 282 335 357 b 767 351 690 357 731 354 l 735 176 b 353 42 640 111 502 42 b 202 155 260 42 202 85 z m 489 864 b 611 758 489 799 531 758 b 765 888 698 758 765 813 b 642 996 765 956 720 996 b 489 864 553 996 489 937 z m 538 869 b 639 957 538 917 579 957 b 717 883 693 957 717 928 b 615 797 717 836 674 797 b 538 869 561 797 538 826 z "},"ā":{"ha":898,"x_min":0,"x_max":0,"o":"m 651 408 b 138 153 290 408 138 311 b 347 -12 138 33 238 -12 b 724 112 508 -12 633 54 l 714 0 l 764 0 l 839 434 b 845 500 843 457 845 479 b 598 689 845 624 766 689 b 293 632 459 689 351 655 l 309 579 b 588 633 362 601 470 633 b 786 491 715 633 786 597 b 774 402 786 467 780 424 b 651 408 740 405 691 408 z m 202 155 b 652 357 202 282 335 357 b 767 351 690 357 731 354 l 735 176 b 353 42 640 111 502 42 b 202 155 260 42 202 85 z m 422 787 l 805 787 l 814 838 l 431 838 z "},"ă":{"ha":898,"x_min":0,"x_max":0,"o":"m 651 408 b 138 153 290 408 138 311 b 347 -12 138 33 238 -12 b 724 112 508 -12 633 54 l 714 0 l 764 0 l 839 434 b 845 500 843 457 845 479 b 598 689 845 624 766 689 b 293 632 459 689 351 655 l 309 579 b 588 633 362 601 470 633 b 786 491 715 633 786 597 b 774 402 786 467 780 424 b 651 408 740 405 691 408 z m 202 155 b 652 357 202 282 335 357 b 767 351 690 357 731 354 l 735 176 b 353 42 640 111 502 42 b 202 155 260 42 202 85 z m 461 908 b 607 765 461 820 503 765 b 808 940 723 765 781 833 l 756 948 b 611 813 724 846 672 813 b 514 925 553 813 514 835 b 515 949 514 932 515 940 l 463 947 b 461 908 462 933 461 920 z "},"ą":{"ha":909,"x_min":0,"x_max":0,"o":"m 763 0 l 764 0 l 839 434 b 845 500 843 457 845 479 b 598 689 845 624 766 689 b 293 632 459 689 351 655 l 309 579 b 588 633 362 601 470 633 b 786 491 715 633 786 597 b 774 402 786 467 780 424 b 651 408 740 405 691 408 b 138 153 290 408 138 311 b 347 -12 138 33 238 -12 b 724 112 508 -12 633 54 l 716 21 b 556 -167 599 -33 556 -95 b 683 -284 556 -242 604 -284 b 793 -261 726 -284 760 -275 l 780 -219 b 690 -239 753 -231 728 -239 b 610 -162 639 -239 610 -214 b 763 0 610 -104 644 -53 z m 202 155 b 652 357 202 282 335 357 b 767 351 690 357 731 354 l 735 176 b 353 42 640 111 502 42 b 202 155 260 42 202 85 z "},"ǻ":{"ha":898,"x_min":0,"x_max":0,"o":"m 544 1044 l 562 1002 l 811 1100 l 790 1148 z m 138 153 b 347 -12 138 33 238 -12 b 724 112 508 -12 633 54 l 714 0 l 764 0 l 839 434 b 845 500 843 457 845 479 b 598 689 845 624 766 689 b 293 632 459 689 351 655 l 309 579 b 588 633 362 601 470 633 b 786 491 715 633 786 597 b 774 402 786 467 780 424 b 651 408 740 405 691 408 b 138 153 290 408 138 311 z m 202 155 b 652 357 202 282 335 357 b 767 351 690 357 731 354 l 735 176 b 353 42 640 111 502 42 b 202 155 260 42 202 85 z m 482 839 b 604 733 482 774 524 733 b 758 863 691 733 758 788 b 635 971 758 931 713 971 b 482 839 547 971 482 912 z m 531 844 b 632 932 531 892 572 932 b 710 858 686 932 710 903 b 608 772 710 811 667 772 b 531 844 554 772 531 801 z "},"b":{"ha":950,"x_min":0,"x_max":0,"o":"m 509 -12 b 907 395 735 -12 907 131 b 614 688 907 582 795 688 b 308 585 465 688 354 618 l 376 982 l 317 982 l 148 0 l 195 0 l 219 81 b 509 -12 269 47 374 -12 z m 231 140 l 296 515 b 599 632 354 562 467 632 b 842 383 761 632 842 541 b 514 44 842 163 688 44 b 231 140 403 44 310 85 z "},"c":{"ha":864,"x_min":0,"x_max":0,"o":"m 493 -12 b 785 56 609 -12 688 13 l 763 108 b 503 44 696 78 607 44 b 224 289 328 44 224 119 b 590 633 224 503 381 633 b 817 585 667 633 740 616 l 840 640 b 592 688 781 663 710 688 b 160 285 357 688 160 544 b 493 -12 160 88 286 -12 z "},"ç":{"ha":864,"x_min":0,"x_max":0,"o":"m 283 -222 l 268 -267 b 377 -283 291 -275 331 -283 b 561 -129 492 -283 561 -228 b 516 -12 561 -83 549 -43 b 785 56 620 -8 694 15 l 763 108 b 503 44 696 78 607 44 b 224 289 328 44 224 119 b 590 633 224 503 381 633 b 817 585 667 633 740 616 l 840 640 b 592 688 781 663 710 688 b 160 285 357 688 160 544 b 430 -8 160 109 260 10 b 508 -129 496 -40 508 -86 b 385 -238 508 -204 451 -238 b 283 -222 343 -238 306 -230 z "},"ć":{"ha":864,"x_min":0,"x_max":0,"o":"m 493 -12 b 785 56 609 -12 688 13 l 763 108 b 503 44 696 78 607 44 b 224 289 328 44 224 119 b 590 633 224 503 381 633 b 817 585 667 633 740 616 l 840 640 b 592 688 781 663 710 688 b 160 285 357 688 160 544 b 493 -12 160 88 286 -12 z m 513 802 l 547 765 l 776 951 l 735 997 z "},"ĉ":{"ha":864,"x_min":0,"x_max":0,"o":"m 493 -12 b 785 56 609 -12 688 13 l 763 108 b 503 44 696 78 607 44 b 224 289 328 44 224 119 b 590 633 224 503 381 633 b 817 585 667 633 740 616 l 840 640 b 592 688 781 663 710 688 b 160 285 357 688 160 544 b 493 -12 160 88 286 -12 z m 416 801 l 457 766 l 631 949 l 738 765 l 789 793 l 671 988 l 598 988 z "},"ċ":{"ha":864,"x_min":0,"x_max":0,"o":"m 588 890 l 570 787 l 631 787 l 649 890 z m 160 285 b 493 -12 160 88 286 -12 b 785 56 609 -12 688 13 l 763 108 b 503 44 696 78 607 44 b 224 289 328 44 224 119 b 590 633 224 503 381 633 b 817 585 667 633 740 616 l 840 640 b 592 688 781 663 710 688 b 160 285 357 688 160 544 z "},"č":{"ha":864,"x_min":0,"x_max":0,"o":"m 493 -12 b 785 56 609 -12 688 13 l 763 108 b 503 44 696 78 607 44 b 224 289 328 44 224 119 b 590 633 224 503 381 633 b 817 585 667 633 740 616 l 840 640 b 592 688 781 663 710 688 b 160 285 357 688 160 544 b 493 -12 160 88 286 -12 z m 452 964 l 569 772 l 642 772 l 822 956 l 783 993 l 608 810 l 501 994 z "},"d":{"ha":952,"x_min":0,"x_max":0,"o":"m 562 688 b 159 274 328 688 159 538 b 449 -12 159 83 266 -12 b 765 97 604 -12 729 72 l 756 0 l 804 0 l 974 982 l 915 982 l 848 594 b 562 688 785 637 692 688 z m 223 275 b 563 633 223 493 347 633 b 838 534 663 633 753 597 l 773 163 b 461 43 713 117 588 43 b 223 275 309 43 223 116 z "},"ď":{"ha":997,"x_min":0,"x_max":0,"o":"m 1122 988 l 1050 744 l 1100 732 l 1180 973 z m 159 274 b 449 -12 159 83 266 -12 b 765 97 604 -12 729 72 l 756 0 l 804 0 l 974 982 l 915 982 l 848 594 b 562 688 785 637 692 688 b 159 274 328 688 159 538 z m 223 275 b 563 633 223 493 347 633 b 838 534 663 633 753 597 l 773 163 b 461 43 713 117 588 43 b 223 275 309 43 223 116 z "},"e":{"ha":927,"x_min":0,"x_max":0,"o":"m 495 -12 b 825 80 613 -12 706 17 l 801 131 b 501 43 694 72 612 43 b 223 308 315 43 223 126 l 873 308 b 893 412 884 333 893 369 b 586 689 893 600 758 689 b 160 288 356 689 160 538 b 495 -12 160 83 292 -12 z m 229 359 b 583 633 262 535 407 633 b 833 417 738 633 833 551 b 827 359 833 397 831 372 z "},"è":{"ha":927,"x_min":0,"x_max":0,"o":"m 450 955 l 626 765 l 665 799 l 502 999 z m 160 288 b 495 -12 160 83 292 -12 b 825 80 613 -12 706 17 l 801 131 b 501 43 694 72 612 43 b 223 308 315 43 223 126 l 873 308 b 893 412 884 333 893 369 b 586 689 893 600 758 689 b 160 288 356 689 160 538 z m 229 359 b 583 633 262 535 407 633 b 833 417 738 633 833 551 b 827 359 833 397 831 372 z "},"é":{"ha":927,"x_min":0,"x_max":0,"o":"m 495 -12 b 825 80 613 -12 706 17 l 801 131 b 501 43 694 72 612 43 b 223 308 315 43 223 126 l 873 308 b 893 412 884 333 893 369 b 586 689 893 600 758 689 b 160 288 356 689 160 538 b 495 -12 160 83 292 -12 z m 229 359 b 583 633 262 535 407 633 b 833 417 738 633 833 551 b 827 359 833 397 831 372 z m 536 802 l 569 765 l 799 951 l 758 997 z "},"ê":{"ha":927,"x_min":0,"x_max":0,"o":"m 410 801 l 451 766 l 625 949 l 733 765 l 783 793 l 665 988 l 592 988 z m 160 288 b 495 -12 160 83 292 -12 b 825 80 613 -12 706 17 l 801 131 b 501 43 694 72 612 43 b 223 308 315 43 223 126 l 873 308 b 893 412 884 333 893 369 b 586 689 893 600 758 689 b 160 288 356 689 160 538 z m 229 359 b 583 633 262 535 407 633 b 833 417 738 633 833 551 b 827 359 833 397 831 372 z "},"ë":{"ha":927,"x_min":0,"x_max":0,"o":"m 492 890 l 474 787 l 535 787 l 553 890 z m 160 288 b 495 -12 160 83 292 -12 b 825 80 613 -12 706 17 l 801 131 b 501 43 694 72 612 43 b 223 308 315 43 223 126 l 873 308 b 893 412 884 333 893 369 b 586 689 893 600 758 689 b 160 288 356 689 160 538 z m 229 359 b 583 633 262 535 407 633 b 833 417 738 633 833 551 b 827 359 833 397 831 372 z m 658 787 l 720 787 l 738 890 l 676 890 z "},"ē":{"ha":927,"x_min":0,"x_max":0,"o":"m 495 -12 b 825 80 613 -12 706 17 l 801 131 b 501 43 694 72 612 43 b 223 308 315 43 223 126 l 873 308 b 893 412 884 333 893 369 b 586 689 893 600 758 689 b 160 288 356 689 160 538 b 495 -12 160 83 292 -12 z m 229 359 b 583 633 262 535 407 633 b 833 417 738 633 833 551 b 827 359 833 397 831 372 z m 406 787 l 789 787 l 798 838 l 415 838 z "},"ĕ":{"ha":927,"x_min":0,"x_max":0,"o":"m 495 -12 b 825 80 613 -12 706 17 l 801 131 b 501 43 694 72 612 43 b 223 308 315 43 223 126 l 873 308 b 893 412 884 333 893 369 b 586 689 893 600 758 689 b 160 288 356 689 160 538 b 495 -12 160 83 292 -12 z m 229 359 b 583 633 262 535 407 633 b 833 417 738 633 833 551 b 827 359 833 397 831 372 z m 453 908 b 599 765 453 820 495 765 b 799 940 715 765 772 833 l 748 948 b 603 813 716 846 664 813 b 506 925 544 813 506 835 b 507 949 506 932 506 940 l 455 947 b 453 908 453 933 453 920 z "},"ė":{"ha":927,"x_min":0,"x_max":0,"o":"m 588 890 l 571 787 l 632 787 l 649 890 z m 160 288 b 495 -12 160 83 292 -12 b 825 80 613 -12 706 17 l 801 131 b 501 43 694 72 612 43 b 223 308 315 43 223 126 l 873 308 b 893 412 884 333 893 369 b 586 689 893 600 758 689 b 160 288 356 689 160 538 z m 229 359 b 583 633 262 535 407 633 b 833 417 738 633 833 551 b 827 359 833 397 831 372 z "},"ę":{"ha":991,"x_min":0,"x_max":0,"o":"m 495 -12 b 622 1 540 -12 581 -8 b 549 -163 570 -49 549 -101 b 681 -284 549 -241 599 -284 b 793 -261 724 -284 760 -275 l 780 -219 b 687 -239 752 -231 726 -239 b 603 -158 633 -239 603 -212 b 755 45 603 -87 638 -22 b 825 80 777 56 801 67 l 801 131 b 501 43 694 72 612 43 b 223 308 315 43 223 126 l 873 308 b 893 412 884 333 893 369 b 586 689 893 600 758 689 b 160 288 356 689 160 538 b 495 -12 160 83 292 -12 z m 229 359 b 583 633 262 535 407 633 b 833 417 738 633 833 551 b 827 359 833 397 831 372 z "},"ě":{"ha":927,"x_min":0,"x_max":0,"o":"m 495 -12 b 825 80 613 -12 706 17 l 801 131 b 501 43 694 72 612 43 b 223 308 315 43 223 126 l 873 308 b 893 412 884 333 893 369 b 586 689 893 600 758 689 b 160 288 356 689 160 538 b 495 -12 160 83 292 -12 z m 229 359 b 583 633 262 535 407 633 b 833 417 738 633 833 551 b 827 359 833 397 831 372 z m 445 964 l 562 772 l 635 772 l 815 956 l 776 993 l 601 810 l 494 994 z "},"f":{"ha":641,"x_min":0,"x_max":0,"o":"m 310 622 l 203 0 l 262 0 l 369 622 l 733 622 l 742 674 l 379 674 l 399 790 b 647 937 420 913 518 937 b 814 919 711 937 763 929 l 828 971 b 652 992 808 974 723 992 b 341 800 506 992 369 960 l 320 674 l 185 674 l 176 622 z "},"g":{"ha":971,"x_min":0,"x_max":0,"o":"m 148 -167 l 124 -221 b 410 -290 175 -249 275 -290 b 824 6 617 -290 787 -206 l 940 674 l 890 674 l 869 590 b 579 690 807 634 712 690 b 176 278 345 690 176 540 b 467 -4 176 89 285 -4 b 782 103 620 -4 745 78 l 769 26 b 412 -235 726 -214 506 -235 b 148 -167 293 -235 201 -195 z m 240 278 b 580 634 240 485 358 634 b 856 534 680 634 771 599 l 794 172 b 478 51 733 126 606 51 b 240 278 335 51 240 117 z "},"ĝ":{"ha":971,"x_min":0,"x_max":0,"o":"m 419 801 l 460 766 l 633 949 l 741 765 l 792 793 l 674 988 l 601 988 z m 124 -221 b 410 -290 175 -249 275 -290 b 824 6 617 -290 787 -206 l 940 674 l 890 674 l 869 590 b 579 690 807 634 712 690 b 176 278 345 690 176 540 b 467 -4 176 89 285 -4 b 782 103 620 -4 745 78 l 769 26 b 412 -235 726 -214 506 -235 b 148 -167 293 -235 201 -195 z m 240 278 b 580 634 240 485 358 634 b 856 534 680 634 771 599 l 794 172 b 478 51 733 126 606 51 b 240 278 335 51 240 117 z "},"ğ":{"ha":971,"x_min":0,"x_max":0,"o":"m 148 -167 l 124 -221 b 410 -290 175 -249 275 -290 b 824 6 617 -290 787 -206 l 940 674 l 890 674 l 869 590 b 579 690 807 634 712 690 b 176 278 345 690 176 540 b 467 -4 176 89 285 -4 b 782 103 620 -4 745 78 l 769 26 b 412 -235 726 -214 506 -235 b 148 -167 293 -235 201 -195 z m 240 278 b 580 634 240 485 358 634 b 856 534 680 634 771 599 l 794 172 b 478 51 733 126 606 51 b 240 278 335 51 240 117 z m 484 908 b 630 765 484 820 526 765 b 831 940 746 765 803 833 l 779 948 b 634 813 747 846 695 813 b 537 925 576 813 537 835 b 538 949 537 932 538 940 l 486 947 b 484 908 485 933 484 920 z "},"ġ":{"ha":971,"x_min":0,"x_max":0,"o":"m 615 890 l 598 787 l 659 787 l 676 890 z m 124 -221 b 410 -290 175 -249 275 -290 b 824 6 617 -290 787 -206 l 940 674 l 890 674 l 869 590 b 579 690 807 634 712 690 b 176 278 345 690 176 540 b 467 -4 176 89 285 -4 b 782 103 620 -4 745 78 l 769 26 b 412 -235 726 -214 506 -235 b 148 -167 293 -235 201 -195 z m 240 278 b 580 634 240 485 358 634 b 856 534 680 634 771 599 l 794 172 b 478 51 733 126 606 51 b 240 278 335 51 240 117 z "},"ģ":{"ha":971,"x_min":0,"x_max":0,"o":"m 701 1074 l 621 940 l 597 800 l 646 800 l 669 930 l 735 1056 z m 124 -221 b 410 -290 175 -249 275 -290 b 824 6 617 -290 787 -206 l 940 674 l 890 674 l 869 590 b 579 690 807 634 712 690 b 176 278 345 690 176 540 b 467 -4 176 89 285 -4 b 782 103 620 -4 745 78 l 769 26 b 412 -235 726 -214 506 -235 b 148 -167 293 -235 201 -195 z m 240 278 b 580 634 240 485 358 634 b 856 534 680 634 771 599 l 794 172 b 478 51 733 126 606 51 b 240 278 335 51 240 117 z "},"h":{"ha":950,"x_min":0,"x_max":0,"o":"m 317 982 l 148 0 l 207 0 l 299 528 b 650 633 343 558 497 633 b 837 485 767 633 837 600 b 830 417 837 465 834 442 l 758 0 l 817 0 l 892 434 b 898 501 896 458 898 481 b 656 689 898 640 803 689 b 308 586 494 689 349 613 l 376 982 z "},"ĥ":{"ha":950,"x_min":0,"x_max":0,"o":"m 437 1089 l 474 1049 l 674 1216 l 816 1049 l 858 1083 l 706 1256 l 645 1256 z m 148 0 l 207 0 l 299 528 b 650 633 343 558 497 633 b 837 485 767 633 837 600 b 830 417 837 465 834 442 l 758 0 l 817 0 l 892 434 b 898 501 896 458 898 481 b 656 689 898 640 803 689 b 308 586 494 689 349 613 l 376 982 l 317 982 z "},"i":{"ha":355,"x_min":0,"x_max":0,"o":"m 265 674 l 148 0 l 207 0 l 324 674 z m 284 787 l 343 787 l 360 890 l 301 890 z "},"ì":{"ha":355,"x_min":0,"x_max":0,"o":"m 130 955 l 306 765 l 345 799 l 182 999 z m 148 0 l 207 0 l 324 674 l 265 674 z "},"í":{"ha":355,"x_min":0,"x_max":0,"o":"m 265 674 l 148 0 l 207 0 l 324 674 z m 278 802 l 311 765 l 541 951 l 499 997 z "},"î":{"ha":355,"x_min":0,"x_max":0,"o":"m 122 801 l 163 766 l 337 949 l 444 765 l 495 793 l 377 988 l 304 988 z m 148 0 l 207 0 l 324 674 l 265 674 z "},"ï":{"ha":355,"x_min":0,"x_max":0,"o":"m 205 890 l 188 787 l 249 787 l 266 890 z m 148 0 l 207 0 l 324 674 l 265 674 z m 372 787 l 433 787 l 451 890 l 389 890 z "},"ĩ":{"ha":355,"x_min":0,"x_max":0,"o":"m 265 674 l 148 0 l 207 0 l 324 674 z m 90 809 l 130 783 b 228 857 162 829 194 857 b 306 818 256 857 272 843 b 410 777 343 791 371 777 b 551 881 462 777 502 799 l 510 906 b 412 828 476 851 449 828 b 331 866 383 828 363 842 b 231 908 290 896 269 908 b 90 809 181 908 134 883 z "},"ī":{"ha":355,"x_min":0,"x_max":0,"o":"m 265 674 l 148 0 l 207 0 l 324 674 z m 116 787 l 499 787 l 508 838 l 124 838 z "},"ĭ":{"ha":355,"x_min":0,"x_max":0,"o":"m 265 674 l 148 0 l 207 0 l 324 674 z m 167 908 b 313 765 167 820 210 765 b 514 940 429 765 487 833 l 463 948 b 317 813 431 846 378 813 b 220 925 259 813 220 835 b 222 949 220 932 221 940 l 169 947 b 167 908 168 933 167 920 z "},"į":{"ha":355,"x_min":0,"x_max":0,"o":"m 131 -284 b 244 -261 175 -284 210 -275 l 231 -219 b 138 -239 203 -231 177 -239 b 54 -162 83 -239 54 -214 b 207 0 54 -103 89 -53 l 324 674 l 265 674 l 151 17 b -1 -167 41 -35 -1 -95 b 131 -284 -1 -242 50 -284 z m 284 787 l 343 787 l 360 890 l 301 890 z "},"j":{"ha":432,"x_min":0,"x_max":0,"o":"m -2 -234 l 15 -288 b 282 -9 164 -222 258 -148 l 400 674 l 341 674 l 225 5 b -2 -234 207 -101 128 -167 z m 360 787 l 419 787 l 437 890 l 378 890 z "},"ĵ":{"ha":379,"x_min":0,"x_max":0,"o":"m 189 5 b -39 -234 170 -101 92 -167 l -22 -288 b 245 -9 127 -222 222 -148 l 364 674 l 304 674 z m 153 801 l 194 766 l 368 949 l 476 765 l 526 793 l 408 988 l 335 988 z "},"k":{"ha":890,"x_min":0,"x_max":0,"o":"m 552 376 l 782 -9 l 833 19 l 599 410 l 911 635 l 879 681 l 246 227 l 376 982 l 317 982 l 148 0 l 207 0 l 233 151 z "},"ķ":{"ha":890,"x_min":0,"x_max":0,"o":"m 408 -368 l 488 -233 l 513 -94 l 463 -94 l 440 -224 l 374 -349 z m 148 0 l 207 0 l 233 151 l 552 376 l 782 -9 l 833 19 l 599 410 l 911 635 l 879 681 l 246 227 l 376 982 l 317 982 z "},"l":{"ha":354,"x_min":0,"x_max":0,"o":"m 317 982 l 148 0 l 207 0 l 376 982 z "},"ĺ":{"ha":354,"x_min":0,"x_max":0,"o":"m 326 1098 l 349 1049 l 647 1184 l 620 1240 z m 148 0 l 207 0 l 376 982 l 317 982 z "},"ļ":{"ha":354,"x_min":0,"x_max":0,"o":"m 94 -368 l 174 -233 l 198 -94 l 149 -94 l 126 -224 l 60 -349 z m 148 0 l 207 0 l 376 982 l 317 982 z "},"ľ":{"ha":390,"x_min":0,"x_max":0,"o":"m 522 988 l 450 744 l 500 732 l 580 973 z m 148 0 l 207 0 l 376 982 l 317 982 z "},"m":{"ha":1462,"x_min":0,"x_max":0,"o":"m 265 674 l 148 0 l 207 0 l 298 528 b 631 633 325 545 464 633 b 797 506 740 633 797 597 b 792 456 797 491 795 474 l 713 0 l 772 0 l 862 517 b 1186 633 908 549 1034 633 b 1349 494 1297 633 1349 597 b 1341 412 1349 470 1347 443 l 1270 0 l 1329 0 l 1404 434 b 1411 508 1409 462 1411 486 b 1190 689 1411 648 1320 689 b 851 567 1035 689 907 606 b 635 689 829 655 758 689 b 308 586 478 689 351 615 l 315 674 z "},"n":{"ha":960,"x_min":0,"x_max":0,"o":"m 265 674 l 148 0 l 207 0 l 298 528 b 656 633 344 558 504 633 b 847 486 778 633 847 601 b 839 412 847 465 844 440 l 768 0 l 827 0 l 902 434 b 908 503 906 459 908 482 b 665 689 908 640 817 689 b 308 586 508 689 363 618 l 315 674 z "},"ñ":{"ha":960,"x_min":0,"x_max":0,"o":"m 265 674 l 148 0 l 207 0 l 298 528 b 656 633 344 558 504 633 b 847 486 778 633 847 601 b 839 412 847 465 844 440 l 768 0 l 827 0 l 902 434 b 908 503 906 459 908 482 b 665 689 908 640 817 689 b 308 586 508 689 363 618 l 315 674 z m 419 809 l 458 783 b 556 857 490 829 522 857 b 635 818 584 857 600 843 b 739 777 672 791 699 777 b 880 881 790 777 831 799 l 838 906 b 740 828 804 851 777 828 b 659 866 712 828 691 842 b 559 908 619 896 598 908 b 419 809 510 908 463 883 z "},"ń":{"ha":960,"x_min":0,"x_max":0,"o":"m 543 802 l 576 765 l 806 951 l 765 997 z m 148 0 l 207 0 l 298 528 b 656 633 344 558 504 633 b 847 486 778 633 847 601 b 839 412 847 465 844 440 l 768 0 l 827 0 l 902 434 b 908 503 906 459 908 482 b 665 689 908 640 817 689 b 308 586 508 689 363 618 l 315 674 l 265 674 z "},"ņ":{"ha":960,"x_min":0,"x_max":0,"o":"m 424 -368 l 504 -233 l 528 -94 l 479 -94 l 456 -224 l 390 -349 z m 148 0 l 207 0 l 298 528 b 656 633 344 558 504 633 b 847 486 778 633 847 601 b 839 412 847 465 844 440 l 768 0 l 827 0 l 902 434 b 908 503 906 459 908 482 b 665 689 908 640 817 689 b 308 586 508 689 363 618 l 315 674 l 265 674 z "},"ň":{"ha":960,"x_min":0,"x_max":0,"o":"m 481 964 l 598 772 l 671 772 l 851 956 l 813 993 l 638 810 l 531 994 z m 148 0 l 207 0 l 298 528 b 656 633 344 558 504 633 b 847 486 778 633 847 601 b 839 412 847 465 844 440 l 768 0 l 827 0 l 902 434 b 908 503 906 459 908 482 b 665 689 908 640 817 689 b 308 586 508 689 363 618 l 315 674 l 265 674 z "},"o":{"ha":997,"x_min":0,"x_max":0,"o":"m 601 690 b 160 290 335 690 160 526 b 513 -12 160 101 301 -12 b 953 386 784 -12 953 149 b 601 690 953 577 813 690 z m 224 301 b 599 634 224 498 372 634 b 889 377 780 634 889 539 b 515 44 889 180 748 44 b 224 301 339 44 224 139 z "},"ò":{"ha":997,"x_min":0,"x_max":0,"o":"m 474 955 l 651 765 l 690 799 l 526 999 z m 160 290 b 513 -12 160 101 301 -12 b 953 386 784 -12 953 149 b 601 690 953 577 813 690 b 160 290 335 690 160 526 z m 224 301 b 599 634 224 498 372 634 b 889 377 780 634 889 539 b 515 44 889 180 748 44 b 224 301 339 44 224 139 z "},"ó":{"ha":997,"x_min":0,"x_max":0,"o":"m 560 802 l 594 765 l 824 951 l 782 997 z m 160 290 b 513 -12 160 101 301 -12 b 953 386 784 -12 953 149 b 601 690 953 577 813 690 b 160 290 335 690 160 526 z m 224 301 b 599 634 224 498 372 634 b 889 377 780 634 889 539 b 515 44 889 180 748 44 b 224 301 339 44 224 139 z "},"ô":{"ha":997,"x_min":0,"x_max":0,"o":"m 435 801 l 476 766 l 649 949 l 757 765 l 808 793 l 690 988 l 617 988 z m 160 290 b 513 -12 160 101 301 -12 b 953 386 784 -12 953 149 b 601 690 953 577 813 690 b 160 290 335 690 160 526 z m 224 301 b 599 634 224 498 372 634 b 889 377 780 634 889 539 b 515 44 889 180 748 44 b 224 301 339 44 224 139 z "},"õ":{"ha":997,"x_min":0,"x_max":0,"o":"m 601 690 b 160 290 335 690 160 526 b 513 -12 160 101 301 -12 b 953 386 784 -12 953 149 b 601 690 953 577 813 690 z m 224 301 b 599 634 224 498 372 634 b 889 377 780 634 889 539 b 515 44 889 180 748 44 b 224 301 339 44 224 139 z m 403 809 l 442 783 b 540 857 474 829 506 857 b 619 818 568 857 584 843 b 723 777 656 791 683 777 b 864 881 774 777 815 799 l 822 906 b 724 828 788 851 761 828 b 643 866 696 828 675 842 b 543 908 603 896 582 908 b 403 809 494 908 447 883 z "},"ö":{"ha":997,"x_min":0,"x_max":0,"o":"m 511 890 l 494 787 l 555 787 l 572 890 z m 160 290 b 513 -12 160 101 301 -12 b 953 386 784 -12 953 149 b 601 690 953 577 813 690 b 160 290 335 690 160 526 z m 224 301 b 599 634 224 498 372 634 b 889 377 780 634 889 539 b 515 44 889 180 748 44 b 224 301 339 44 224 139 z m 678 787 l 740 787 l 757 890 l 695 890 z "},"ō":{"ha":997,"x_min":0,"x_max":0,"o":"m 601 690 b 160 290 335 690 160 526 b 513 -12 160 101 301 -12 b 953 386 784 -12 953 149 b 601 690 953 577 813 690 z m 224 301 b 599 634 224 498 372 634 b 889 377 780 634 889 539 b 515 44 889 180 748 44 b 224 301 339 44 224 139 z m 427 787 l 810 787 l 819 838 l 435 838 z "},"ŏ":{"ha":997,"x_min":0,"x_max":0,"o":"m 601 690 b 160 290 335 690 160 526 b 513 -12 160 101 301 -12 b 953 386 784 -12 953 149 b 601 690 953 577 813 690 z m 224 301 b 599 634 224 498 372 634 b 889 377 780 634 889 539 b 515 44 889 180 748 44 b 224 301 339 44 224 139 z m 474 908 b 619 765 474 820 516 765 b 820 940 735 765 793 833 l 769 948 b 624 813 737 846 685 813 b 526 925 565 813 526 835 b 528 949 526 932 527 940 l 476 947 b 474 908 474 933 474 920 z "},"ő":{"ha":997,"x_min":0,"x_max":0,"o":"m 456 795 l 494 765 l 676 955 l 628 994 z m 160 290 b 513 -12 160 101 301 -12 b 953 386 784 -12 953 149 b 601 690 953 577 813 690 b 160 290 335 690 160 526 z m 224 301 b 599 634 224 498 372 634 b 889 377 780 634 889 539 b 515 44 889 180 748 44 b 224 301 339 44 224 139 z m 692 803 l 726 768 l 928 941 l 885 987 z "},"p":{"ha":951,"x_min":0,"x_max":0,"o":"m 265 674 l 101 -274 l 160 -274 l 221 80 b 510 -12 263 49 365 -12 b 908 395 755 -12 908 147 b 615 688 908 582 796 688 b 307 584 466 688 353 617 l 315 674 z m 231 137 l 297 519 b 600 633 354 563 468 633 b 844 383 753 633 844 549 b 515 44 844 163 687 44 b 231 137 413 44 318 80 z "},"q":{"ha":953,"x_min":0,"x_max":0,"o":"m 449 -12 b 763 94 601 -12 725 69 l 699 -274 l 758 -274 l 922 674 l 873 674 l 851 590 b 562 688 790 634 694 688 b 159 274 328 688 159 538 b 449 -12 159 83 265 -12 z m 223 275 b 563 633 223 483 340 633 b 838 535 663 633 754 597 l 774 161 b 461 43 713 115 588 43 b 223 275 318 43 223 110 z "},"r":{"ha":597,"x_min":0,"x_max":0,"o":"m 147 0 l 208 0 l 295 506 b 667 631 438 583 542 617 l 658 691 b 304 562 536 680 419 633 l 315 674 l 264 674 z "},"ŕ":{"ha":597,"x_min":0,"x_max":0,"o":"m 147 0 l 208 0 l 295 506 b 667 631 438 583 542 617 l 658 691 b 304 562 536 680 419 633 l 315 674 l 264 674 z m 360 802 l 394 765 l 624 951 l 582 997 z "},"ŗ":{"ha":597,"x_min":0,"x_max":0,"o":"m 92 -368 l 172 -233 l 196 -94 l 147 -94 l 124 -224 l 58 -349 z m 147 0 l 208 0 l 295 506 b 667 631 438 583 542 617 l 658 691 b 304 562 536 680 419 633 l 315 674 l 264 674 z "},"ř":{"ha":597,"x_min":0,"x_max":0,"o":"m 147 0 l 208 0 l 295 506 b 667 631 438 583 542 617 l 658 691 b 304 562 536 680 419 633 l 315 674 l 264 674 z m 313 964 l 429 772 l 502 772 l 683 956 l 644 993 l 469 810 l 362 994 z "},"s":{"ha":836,"x_min":0,"x_max":0,"o":"m 119 103 l 96 51 b 426 -12 159 24 274 -12 b 780 211 628 -12 780 53 b 510 382 780 358 644 375 b 249 486 379 389 249 385 b 516 638 249 588 359 638 b 765 598 617 638 692 620 l 784 648 b 517 691 720 669 627 691 b 191 483 351 691 191 631 b 478 328 191 340 338 335 b 724 203 604 323 724 315 b 430 41 724 92 585 41 b 119 103 298 41 192 72 z "},"ś":{"ha":836,"x_min":0,"x_max":0,"o":"m 119 103 l 96 51 b 426 -12 159 24 274 -12 b 780 211 628 -12 780 53 b 510 382 780 358 644 375 b 249 486 379 389 249 385 b 516 638 249 588 359 638 b 765 598 617 638 692 620 l 784 648 b 517 691 720 669 627 691 b 191 483 351 691 191 631 b 478 328 191 340 338 335 b 724 203 604 323 724 315 b 430 41 724 92 585 41 b 119 103 298 41 192 72 z m 469 802 l 502 765 l 732 951 l 690 997 z "},"ŝ":{"ha":836,"x_min":0,"x_max":0,"o":"m 119 103 l 96 51 b 426 -12 159 24 274 -12 b 780 211 628 -12 780 53 b 510 382 780 358 644 375 b 249 486 379 389 249 385 b 516 638 249 588 359 638 b 765 598 617 638 692 620 l 784 648 b 517 691 720 669 627 691 b 191 483 351 691 191 631 b 478 328 191 340 338 335 b 724 203 604 323 724 315 b 430 41 724 92 585 41 b 119 103 298 41 192 72 z m 342 797 l 383 762 l 557 944 l 665 761 l 715 789 l 597 983 l 524 983 z "},"ş":{"ha":836,"x_min":0,"x_max":0,"o":"m 119 103 l 96 51 b 388 -11 153 26 255 -6 b 461 -129 449 -42 461 -87 b 338 -238 461 -204 403 -238 b 235 -222 296 -238 258 -230 l 221 -267 b 330 -283 244 -275 283 -283 b 514 -129 444 -283 514 -228 b 468 -11 514 -83 501 -42 b 780 211 649 -2 780 64 b 510 382 780 358 644 375 b 249 486 379 389 249 385 b 516 638 249 588 359 638 b 765 598 617 638 692 620 l 784 648 b 517 691 720 669 627 691 b 191 483 351 691 191 631 b 478 328 191 340 338 335 b 724 203 604 323 724 315 b 430 41 724 92 585 41 b 119 103 298 41 192 72 z "},"š":{"ha":836,"x_min":0,"x_max":0,"o":"m 119 103 l 96 51 b 426 -12 159 24 274 -12 b 780 211 628 -12 780 53 b 510 382 780 358 644 375 b 249 486 379 389 249 385 b 516 638 249 588 359 638 b 765 598 617 638 692 620 l 784 648 b 517 691 720 669 627 691 b 191 483 351 691 191 631 b 478 328 191 340 338 335 b 724 203 604 323 724 315 b 430 41 724 92 585 41 b 119 103 298 41 192 72 z m 383 964 l 499 772 l 572 772 l 753 956 l 714 993 l 539 810 l 432 994 z "},"ș":{"ha":836,"x_min":0,"x_max":0,"o":"m 359 -368 l 439 -233 l 463 -94 l 414 -94 l 391 -224 l 325 -349 z m 96 51 b 426 -12 159 24 274 -12 b 780 211 628 -12 780 53 b 510 382 780 358 644 375 b 249 486 379 389 249 385 b 516 638 249 588 359 638 b 765 598 617 638 692 620 l 784 648 b 517 691 720 669 627 691 b 191 483 351 691 191 631 b 478 328 191 340 338 335 b 724 203 604 323 724 315 b 430 41 724 92 585 41 b 119 103 298 41 192 72 z "},"t":{"ha":704,"x_min":0,"x_max":0,"o":"m 413 -12 b 629 22 513 -12 584 7 l 618 75 b 424 42 575 59 505 42 b 299 135 343 42 299 66 b 302 172 299 146 300 158 l 381 622 l 715 622 l 724 674 l 389 674 l 420 856 l 361 856 l 330 674 l 182 674 l 173 622 l 321 622 l 242 165 b 238 121 239 149 238 135 b 413 -12 238 19 312 -12 z "},"ţ":{"ha":704,"x_min":0,"x_max":0,"o":"m 312 -378 l 392 -243 l 416 -103 l 367 -103 l 344 -233 l 278 -359 z m 173 622 l 321 622 l 242 165 b 238 121 239 149 238 135 b 413 -12 238 19 312 -12 b 629 22 513 -12 584 7 l 618 75 b 424 42 575 59 505 42 b 299 135 343 42 299 66 b 302 172 299 146 300 158 l 381 622 l 715 622 l 724 674 l 389 674 l 420 856 l 361 856 l 330 674 l 182 674 z "},"ť":{"ha":704,"x_min":0,"x_max":0,"o":"m 615 1079 l 543 835 l 593 823 l 673 1064 z m 173 622 l 321 622 l 242 165 b 238 121 239 149 238 135 b 413 -12 238 19 312 -12 b 629 22 513 -12 584 7 l 618 75 b 424 42 575 59 505 42 b 299 135 343 42 299 66 b 302 172 299 146 300 158 l 381 622 l 715 622 l 724 674 l 389 674 l 420 856 l 361 856 l 330 674 l 182 674 z "},"ț":{"ha":704,"x_min":0,"x_max":0,"o":"m 312 -368 l 392 -233 l 416 -94 l 367 -94 l 344 -224 l 278 -349 z m 173 622 l 321 622 l 242 165 b 238 121 239 149 238 135 b 413 -12 238 19 312 -12 b 629 22 513 -12 584 7 l 618 75 b 424 42 575 59 505 42 b 299 135 343 42 299 66 b 302 172 299 146 300 158 l 381 622 l 715 622 l 724 674 l 389 674 l 420 856 l 361 856 l 330 674 l 182 674 z "},"u":{"ha":965,"x_min":0,"x_max":0,"o":"m 178 263 b 171 182 173 233 171 206 b 417 -12 171 30 269 -12 b 778 94 585 -12 735 67 l 769 0 l 817 0 l 933 674 l 874 674 l 783 153 b 424 44 754 135 591 44 b 234 201 296 44 234 79 b 244 300 234 229 238 262 l 309 674 l 249 674 z "},"ù":{"ha":965,"x_min":0,"x_max":0,"o":"m 449 955 l 626 765 l 665 799 l 501 999 z m 171 182 b 417 -12 171 30 269 -12 b 778 94 585 -12 735 67 l 769 0 l 817 0 l 933 674 l 874 674 l 783 153 b 424 44 754 135 591 44 b 234 201 296 44 234 79 b 244 300 234 229 238 262 l 309 674 l 249 674 l 178 263 b 171 182 173 233 171 206 z "},"ú":{"ha":965,"x_min":0,"x_max":0,"o":"m 178 263 b 171 182 173 233 171 206 b 417 -12 171 30 269 -12 b 778 94 585 -12 735 67 l 769 0 l 817 0 l 933 674 l 874 674 l 783 153 b 424 44 754 135 591 44 b 234 201 296 44 234 79 b 244 300 234 229 238 262 l 309 674 l 249 674 z m 553 802 l 586 765 l 816 951 l 774 997 z "},"û":{"ha":965,"x_min":0,"x_max":0,"o":"m 426 801 l 467 766 l 640 949 l 748 765 l 799 793 l 681 988 l 608 988 z m 171 182 b 417 -12 171 30 269 -12 b 778 94 585 -12 735 67 l 769 0 l 817 0 l 933 674 l 874 674 l 783 153 b 424 44 754 135 591 44 b 234 201 296 44 234 79 b 244 300 234 229 238 262 l 309 674 l 249 674 l 178 263 b 171 182 173 233 171 206 z "},"ü":{"ha":965,"x_min":0,"x_max":0,"o":"m 498 890 l 481 787 l 542 787 l 559 890 z m 171 182 b 417 -12 171 30 269 -12 b 778 94 585 -12 735 67 l 769 0 l 817 0 l 933 674 l 874 674 l 783 153 b 424 44 754 135 591 44 b 234 201 296 44 234 79 b 244 300 234 229 238 262 l 309 674 l 249 674 l 178 263 b 171 182 173 233 171 206 z m 665 787 l 726 787 l 744 890 l 682 890 z "},"ũ":{"ha":965,"x_min":0,"x_max":0,"o":"m 178 263 b 171 182 173 233 171 206 b 417 -12 171 30 269 -12 b 778 94 585 -12 735 67 l 769 0 l 817 0 l 933 674 l 874 674 l 783 153 b 424 44 754 135 591 44 b 234 201 296 44 234 79 b 244 300 234 229 238 262 l 309 674 l 249 674 z m 395 809 l 435 783 b 533 857 467 829 499 857 b 611 818 560 857 576 843 b 715 777 648 791 676 777 b 856 881 767 777 807 799 l 815 906 b 717 828 781 851 753 828 b 635 866 688 828 667 842 b 535 908 595 896 574 908 b 395 809 486 908 439 883 z "},"ū":{"ha":965,"x_min":0,"x_max":0,"o":"m 178 263 b 171 182 173 233 171 206 b 417 -12 171 30 269 -12 b 778 94 585 -12 735 67 l 769 0 l 817 0 l 933 674 l 874 674 l 783 153 b 424 44 754 135 591 44 b 234 201 296 44 234 79 b 244 300 234 229 238 262 l 309 674 l 249 674 z m 419 787 l 801 787 l 810 838 l 427 838 z "},"ŭ":{"ha":965,"x_min":0,"x_max":0,"o":"m 178 263 b 171 182 173 233 171 206 b 417 -12 171 30 269 -12 b 778 94 585 -12 735 67 l 769 0 l 817 0 l 933 674 l 874 674 l 783 153 b 424 44 754 135 591 44 b 234 201 296 44 234 79 b 244 300 234 229 238 262 l 309 674 l 249 674 z m 460 908 b 606 765 460 820 503 765 b 807 940 722 765 780 833 l 756 948 b 610 813 724 846 672 813 b 513 925 552 813 513 835 b 515 949 513 932 514 940 l 463 947 b 460 908 461 933 460 920 z "},"ů":{"ha":965,"x_min":0,"x_max":0,"o":"m 178 263 b 171 182 173 233 171 206 b 417 -12 171 30 269 -12 b 778 94 585 -12 735 67 l 769 0 l 817 0 l 933 674 l 874 674 l 783 153 b 424 44 754 135 591 44 b 234 201 296 44 234 79 b 244 300 234 229 238 262 l 309 674 l 249 674 z m 488 864 b 610 758 488 799 530 758 b 764 888 697 758 764 813 b 641 996 764 956 719 996 b 488 864 552 996 488 937 z m 536 869 b 638 957 536 917 578 957 b 715 883 692 957 715 928 b 613 797 715 836 672 797 b 536 869 560 797 536 826 z "},"ű":{"ha":965,"x_min":0,"x_max":0,"o":"m 178 263 b 171 182 173 233 171 206 b 417 -12 171 30 269 -12 b 778 94 585 -12 735 67 l 769 0 l 817 0 l 933 674 l 874 674 l 783 153 b 424 44 754 135 591 44 b 234 201 296 44 234 79 b 244 300 234 229 238 262 l 309 674 l 249 674 z m 455 795 l 493 765 l 674 955 l 627 994 z m 690 803 l 724 768 l 926 941 l 884 987 z "},"ų":{"ha":965,"x_min":0,"x_max":0,"o":"m 817 0 l 933 674 l 874 674 l 783 153 b 424 44 754 135 591 44 b 234 201 296 44 234 79 b 244 300 234 229 238 262 l 309 674 l 249 674 l 178 263 b 171 182 173 233 171 206 b 417 -12 171 30 269 -12 b 778 94 585 -12 735 67 l 771 22 b 601 -167 646 -34 601 -94 b 732 -284 601 -242 651 -284 b 845 -261 776 -284 811 -275 l 831 -219 b 738 -239 804 -231 778 -239 b 656 -162 685 -239 656 -214 b 817 0 656 -103 692 -53 z "},"v":{"ha":765,"x_min":0,"x_max":0,"o":"m 143 669 l 347 0 l 426 0 l 853 658 l 805 687 l 392 47 l 200 686 z "},"w":{"ha":1217,"x_min":0,"x_max":0,"o":"m 156 672 l 311 0 l 390 0 l 719 627 l 836 0 l 915 0 l 1288 661 l 1241 687 l 881 49 l 765 674 l 682 674 l 356 54 l 213 685 z "},"ŵ":{"ha":1217,"x_min":0,"x_max":0,"o":"m 535 801 l 576 766 l 749 949 l 857 765 l 908 793 l 790 988 l 717 988 z m 156 672 l 311 0 l 390 0 l 719 627 l 836 0 l 915 0 l 1288 661 l 1241 687 l 881 49 l 765 674 l 682 674 l 356 54 l 213 685 z "},"ẁ":{"ha":1217,"x_min":0,"x_max":0,"o":"m 559 955 l 735 765 l 774 799 l 611 999 z m 156 672 l 311 0 l 390 0 l 719 627 l 836 0 l 915 0 l 1288 661 l 1241 687 l 881 49 l 765 674 l 682 674 l 356 54 l 213 685 z "},"ẃ":{"ha":1217,"x_min":0,"x_max":0,"o":"m 691 802 l 724 765 l 954 951 l 913 997 z m 156 672 l 311 0 l 390 0 l 719 627 l 836 0 l 915 0 l 1288 661 l 1241 687 l 881 49 l 765 674 l 682 674 l 356 54 l 213 685 z "},"ẅ":{"ha":1217,"x_min":0,"x_max":0,"o":"m 630 890 l 613 787 l 674 787 l 691 890 z m 156 672 l 311 0 l 390 0 l 719 627 l 836 0 l 915 0 l 1288 661 l 1241 687 l 881 49 l 765 674 l 682 674 l 356 54 l 213 685 z m 797 787 l 858 787 l 876 890 l 814 890 z "},"x":{"ha":809,"x_min":0,"x_max":0,"o":"m 53 28 l 90 -12 l 465 318 l 731 -12 l 773 25 l 507 354 l 840 648 l 805 690 l 474 394 l 240 686 l 196 650 l 431 359 z "},"y":{"ha":794,"x_min":0,"x_max":0,"o":"m 253 -290 l 882 652 l 831 685 l 417 59 l 217 687 l 158 668 l 377 -1 l 206 -255 z "},"ý":{"ha":794,"x_min":0,"x_max":0,"o":"m 253 -290 l 882 652 l 831 685 l 417 59 l 217 687 l 158 668 l 377 -1 l 206 -255 z m 484 802 l 517 765 l 747 951 l 706 997 z "},"ÿ":{"ha":794,"x_min":0,"x_max":0,"o":"m 253 -290 l 882 652 l 831 685 l 417 59 l 217 687 l 158 668 l 377 -1 l 206 -255 z m 408 787 l 469 787 l 486 890 l 425 890 z m 592 787 l 653 787 l 671 890 l 609 890 z "},"ŷ":{"ha":794,"x_min":0,"x_max":0,"o":"m 253 -290 l 882 652 l 831 685 l 417 59 l 217 687 l 158 668 l 377 -1 l 206 -255 z m 344 801 l 385 766 l 558 949 l 666 765 l 717 793 l 599 988 l 526 988 z "},"z":{"ha":831,"x_min":0,"x_max":0,"o":"m 97 67 l 85 0 l 765 0 l 773 52 l 158 52 l 838 610 l 848 674 l 230 674 l 222 622 l 774 622 z "},"ź":{"ha":831,"x_min":0,"x_max":0,"o":"m 97 67 l 85 0 l 765 0 l 773 52 l 158 52 l 838 610 l 848 674 l 230 674 l 222 622 l 774 622 z m 476 802 l 509 765 l 739 951 l 697 997 z "},"ż":{"ha":831,"x_min":0,"x_max":0,"o":"m 542 890 l 524 787 l 585 787 l 603 890 z m 85 0 l 765 0 l 773 52 l 158 52 l 838 610 l 848 674 l 230 674 l 222 622 l 774 622 l 97 67 z "},"ž":{"ha":831,"x_min":0,"x_max":0,"o":"m 97 67 l 85 0 l 765 0 l 773 52 l 158 52 l 838 610 l 848 674 l 230 674 l 222 622 l 774 622 z m 399 964 l 515 772 l 588 772 l 769 956 l 730 993 l 555 810 l 448 994 z "},"ª":{"ha":625,"x_min":0,"x_max":0,"o":"m 349 443 b 569 517 444 443 525 485 l 563 452 l 608 452 l 648 683 b 651 726 651 699 651 713 b 477 857 651 810 600 857 b 305 831 408 857 340 843 l 314 789 b 472 813 343 798 399 813 b 600 723 565 813 600 784 b 597 689 600 712 599 699 b 466 702 572 694 522 702 b 203 550 313 702 203 655 b 349 443 203 463 276 443 z m 258 553 b 467 658 258 620 333 658 b 590 647 526 658 568 653 l 576 565 b 356 488 531 533 444 488 b 258 553 289 488 258 510 z "},"º":{"ha":649,"x_min":0,"x_max":0,"o":"m 406 444 b 674 676 540 444 674 522 b 451 861 674 799 576 861 b 185 629 315 861 185 778 b 406 444 185 508 280 444 z m 242 634 b 448 815 242 748 337 815 b 617 672 548 815 617 767 b 410 490 617 558 519 490 b 242 634 309 490 242 537 z "},"ß":{"ha":931,"x_min":0,"x_max":0,"o":"m 348 88 l 325 35 b 544 -13 375 8 447 -13 b 868 304 721 -13 868 71 b 721 507 868 444 808 494 b 886 749 817 536 886 615 b 622 966 886 902 762 966 b 266 697 452 966 300 893 l 146 0 l 206 0 l 324 688 b 615 910 351 839 460 910 b 822 746 740 910 822 856 b 594 521 822 585 697 521 l 502 521 l 493 469 l 613 469 b 805 301 748 469 805 433 b 552 42 805 142 722 42 b 348 88 458 42 398 64 z "},"æ":{"ha":1488,"x_min":0,"x_max":0,"o":"m 369 -12 b 763 133 535 -12 676 72 b 1037 -12 809 37 906 -12 b 1331 78 1153 -12 1234 21 l 1303 127 b 1045 42 1216 74 1139 42 b 790 313 864 42 772 143 l 1381 313 b 1400 423 1390 340 1400 376 b 1133 690 1400 577 1305 690 b 803 520 995 690 868 626 b 585 689 794 632 717 689 b 308 632 472 689 367 656 l 324 579 b 580 635 372 601 471 635 b 756 476 693 635 756 590 b 746 403 756 445 751 424 b 624 409 716 406 672 409 b 153 153 319 409 153 321 b 369 -12 153 24 260 -12 z m 218 157 b 630 360 218 292 363 360 b 738 355 678 360 712 357 b 733 281 734 331 733 307 b 744 182 733 244 737 212 b 379 41 654 115 510 41 b 218 157 270 41 218 81 z m 797 363 b 1128 636 829 540 967 636 b 1341 424 1265 636 1341 550 b 1335 363 1341 403 1338 376 z "},"ǽ":{"ha":1488,"x_min":0,"x_max":0,"o":"m 369 -12 b 763 133 535 -12 676 72 b 1037 -12 809 37 906 -12 b 1331 78 1153 -12 1234 21 l 1303 127 b 1045 42 1216 74 1139 42 b 790 313 864 42 772 143 l 1381 313 b 1400 423 1390 340 1400 376 b 1133 690 1400 577 1305 690 b 803 520 995 690 868 626 b 585 689 794 632 717 689 b 308 632 472 689 367 656 l 324 579 b 580 635 372 601 471 635 b 756 476 693 635 756 590 b 746 403 756 445 751 424 b 624 409 716 406 672 409 b 153 153 319 409 153 321 b 369 -12 153 24 260 -12 z m 218 157 b 630 360 218 292 363 360 b 738 355 678 360 712 357 b 733 281 734 331 733 307 b 744 182 733 244 737 212 b 379 41 654 115 510 41 b 218 157 270 41 218 81 z m 797 363 b 1128 636 829 540 967 636 b 1341 424 1265 636 1341 550 b 1335 363 1341 403 1338 376 z m 804 802 l 838 765 l 1067 951 l 1026 997 z "},"ð":{"ha":990,"x_min":0,"x_max":0,"o":"m 481 -16 b 944 462 760 -16 944 165 b 753 892 944 634 897 798 l 830 988 l 790 1018 l 710 917 b 473 972 645 949 566 967 l 460 917 b 674 869 545 912 615 896 l 584 756 l 626 726 l 717 843 b 883 469 825 773 881 655 b 564 640 817 588 679 640 b 160 276 360 640 160 513 b 481 -16 160 71 319 -16 z m 224 281 b 563 586 224 474 382 586 b 875 372 678 586 825 518 b 490 39 840 119 638 39 b 224 281 347 39 224 115 z "},"ø":{"ha":996,"x_min":0,"x_max":0,"o":"m 98 31 l 129 -11 l 247 77 b 513 -12 309 19 401 -12 b 953 386 784 -12 953 149 b 899 565 953 457 933 517 l 1006 645 l 975 689 l 863 604 b 601 690 801 660 710 690 b 160 290 335 690 160 526 b 213 117 160 222 178 163 z m 224 301 b 599 634 224 498 372 634 b 812 566 689 634 762 610 l 265 156 b 224 301 238 194 224 244 z m 299 116 l 847 526 b 889 377 874 486 889 436 b 515 44 889 180 748 44 b 299 116 424 44 350 69 z "},"ǿ":{"ha":997,"x_min":0,"x_max":0,"o":"m 98 31 l 129 -11 l 247 77 b 513 -12 309 19 401 -12 b 953 386 784 -12 953 149 b 899 565 953 457 933 517 l 1006 645 l 975 689 l 863 604 b 601 690 801 660 710 690 b 160 290 335 690 160 526 b 213 117 160 222 178 163 z m 224 301 b 599 634 224 498 372 634 b 812 566 689 634 762 610 l 265 156 b 224 301 238 194 224 244 z m 299 116 l 847 526 b 889 377 874 486 889 436 b 515 44 889 180 748 44 b 299 116 424 44 350 69 z m 563 802 l 597 765 l 826 951 l 785 997 z "},"þ":{"ha":949,"x_min":0,"x_max":0,"o":"m 316 982 l 99 -274 l 158 -274 l 219 80 b 508 -12 262 50 363 -12 b 906 395 753 -12 906 146 b 613 688 906 582 794 688 b 307 585 464 688 353 619 l 375 982 z m 230 140 l 294 513 b 599 631 352 560 467 631 b 842 383 751 631 842 547 b 513 44 842 163 685 44 b 230 140 411 44 316 81 z "},"đ":{"ha":949,"x_min":0,"x_max":0,"o":"m 728 850 l 720 799 l 883 799 l 848 594 b 562 688 785 637 692 688 b 159 274 328 688 159 538 b 449 -12 159 83 266 -12 b 765 97 604 -12 729 72 l 756 0 l 804 0 l 942 799 l 1088 799 l 1096 850 l 951 850 l 974 982 l 915 982 l 892 850 z m 223 275 b 563 633 223 493 347 633 b 838 534 663 633 753 597 l 773 163 b 461 43 713 117 588 43 b 223 275 309 43 223 116 z "},"ħ":{"ha":950,"x_min":0,"x_max":0,"o":"m 204 857 l 196 806 l 287 806 l 148 0 l 207 0 l 299 528 b 650 633 343 558 497 633 b 837 485 767 633 837 600 b 830 417 837 465 834 442 l 758 0 l 817 0 l 892 434 b 898 501 896 458 898 481 b 656 689 898 640 803 689 b 308 586 494 689 349 613 l 346 806 l 567 806 l 576 857 l 355 857 l 376 982 l 317 982 l 296 857 z "},"ı":{"ha":353,"x_min":0,"x_max":0,"o":"m 264 674 l 147 0 l 206 0 l 323 674 z "},"ĳ":{"ha":847,"x_min":0,"x_max":0,"o":"m 295 674 l 178 0 l 238 0 l 354 674 z m 315 787 l 374 787 l 391 890 l 332 890 z m 414 -234 l 431 -288 b 698 -9 580 -222 674 -148 l 816 674 l 757 674 l 641 5 b 414 -234 623 -101 544 -167 z m 776 787 l 835 787 l 853 890 l 794 890 z "},"ĸ":{"ha":878,"x_min":0,"x_max":0,"o":"m 551 376 l 780 -9 l 831 19 l 597 410 l 910 636 l 878 681 l 244 226 l 322 674 l 263 674 l 146 0 l 206 0 l 231 151 z "},"ŀ":{"ha":354,"x_min":0,"x_max":0,"o":"m 317 982 l 148 0 l 207 0 l 376 982 z m 393 435 l 463 435 l 485 566 l 416 566 z "},"ł":{"ha":401,"x_min":0,"x_max":0,"o":"m 77 391 l 97 338 l 231 394 l 163 0 l 222 0 l 294 422 l 491 506 l 472 560 l 306 490 l 391 982 l 332 982 l 242 462 z "},"ŉ":{"ha":960,"x_min":0,"x_max":0,"o":"m 110 724 l 190 858 l 214 998 l 165 998 l 142 868 l 76 742 z m 148 0 l 207 0 l 298 528 b 656 633 344 558 504 633 b 847 486 778 633 847 601 b 839 412 847 465 844 440 l 768 0 l 827 0 l 902 434 b 908 503 906 459 908 482 b 665 689 908 640 817 689 b 308 586 508 689 363 618 l 315 674 l 265 674 z "},"ŋ":{"ha":966,"x_min":0,"x_max":0,"o":"m 838 412 l 767 5 b 540 -234 749 -101 671 -167 l 558 -288 b 824 -9 706 -222 800 -148 l 901 434 b 908 503 906 460 908 483 b 664 689 908 636 823 689 b 307 586 488 689 344 608 l 314 674 l 263 674 l 147 0 l 206 0 l 297 528 b 655 633 327 545 483 633 b 844 483 777 633 844 600 b 838 412 844 463 842 439 z "},"œ":{"ha":1582,"x_min":0,"x_max":0,"o":"m 475 -12 b 837 199 644 -12 775 69 b 1135 -12 865 59 972 -12 b 1442 81 1253 -12 1343 19 l 1415 131 b 1141 43 1321 73 1248 43 b 883 309 940 43 881 167 l 1492 309 b 1511 417 1501 333 1511 367 b 1234 690 1511 590 1403 690 b 870 472 1074 690 933 610 b 567 690 839 603 728 690 b 160 289 337 690 160 526 b 475 -12 160 99 291 -12 z m 224 296 b 566 634 224 493 365 634 b 826 381 720 634 826 530 b 481 44 826 183 672 44 b 224 296 321 44 224 144 z m 890 360 b 1231 633 922 538 1067 633 b 1449 422 1367 633 1449 553 b 1443 360 1449 400 1447 378 z "},"ŧ":{"ha":704,"x_min":0,"x_max":0,"o":"m 148 391 l 140 339 l 272 339 l 242 165 b 238 121 239 149 238 135 b 413 -12 238 19 312 -12 b 629 22 513 -12 584 7 l 618 75 b 424 42 575 59 505 42 b 299 135 343 42 299 66 b 302 172 299 146 300 158 l 331 339 l 682 339 l 690 391 l 340 391 l 381 622 l 715 622 l 724 674 l 389 674 l 420 856 l 361 856 l 330 674 l 182 674 l 173 622 l 321 622 l 281 391 z "},"ſ":{"ha":574,"x_min":0,"x_max":0,"o":"m 322 622 l 215 0 l 274 0 l 410 785 b 658 937 432 915 516 937 b 826 920 735 937 776 931 l 841 971 b 666 992 824 974 753 992 b 353 800 480 992 379 952 l 331 674 l 198 674 l 189 622 z "},"ȷ":{"ha":378,"x_min":0,"x_max":0,"o":"m 181 5 b -47 -234 162 -101 83 -167 l -30 -288 b 237 -9 119 -222 213 -148 l 356 674 l 296 674 z "},"π":{"ha":1134,"x_min":0,"x_max":0,"o":"m 764 165 b 759 113 760 146 759 128 b 912 -12 759 22 813 -12 b 1069 23 981 -12 1048 15 l 1059 72 b 921 41 1039 64 985 41 b 819 127 858 41 819 61 b 824 172 819 140 821 156 l 903 624 l 1141 624 l 1150 674 l 190 674 l 181 624 l 391 624 l 283 0 l 342 0 l 451 624 l 843 624 z "},"¼":{"ha":1718,"x_min":0,"x_max":0,"o":"m 1461 90 l 1446 -1 l 1495 -1 l 1511 90 l 1611 90 l 1619 134 l 1519 134 l 1578 480 l 1500 480 l 1115 138 l 1107 90 z m 243 412 l 704 412 l 713 458 l 515 458 l 590 892 l 542 892 l 363 850 l 364 803 l 531 840 l 465 458 l 252 458 z m 651 8 l 688 -22 l 1351 856 l 1315 888 z m 1174 134 l 1522 442 l 1469 134 z "},"½":{"ha":1792,"x_min":0,"x_max":0,"o":"m 252 458 l 243 412 l 704 412 l 713 458 l 515 458 l 590 892 l 542 892 l 363 850 l 364 803 l 531 840 l 465 458 z m 651 8 l 688 -22 l 1351 856 l 1315 888 z m 1174 -1 l 1669 -1 l 1677 44 l 1235 44 l 1240 75 b 1422 201 1249 125 1284 165 l 1553 237 b 1723 380 1678 272 1723 306 b 1524 492 1723 453 1663 492 b 1283 443 1438 492 1351 469 l 1299 398 b 1522 444 1372 425 1455 444 b 1667 376 1620 444 1667 426 b 1540 281 1667 331 1637 308 l 1401 242 b 1185 69 1242 200 1198 144 z "},"¾":{"ha":1726,"x_min":0,"x_max":0,"o":"m 231 483 l 214 437 b 443 394 264 414 349 394 b 735 569 616 394 735 442 b 619 673 735 630 687 669 b 731 797 687 687 731 729 b 558 904 731 881 655 904 b 326 862 463 904 383 882 l 339 817 b 552 857 405 840 491 857 b 674 791 641 857 674 833 b 505 686 674 727 615 686 l 376 686 l 368 642 l 498 642 b 678 563 602 642 678 630 b 449 443 678 485 595 443 b 231 483 363 443 290 460 z m 653 8 l 691 -22 l 1353 856 l 1317 888 z m 1137 90 l 1491 90 l 1476 -1 l 1525 -1 l 1541 90 l 1641 90 l 1649 134 l 1549 134 l 1608 480 l 1530 480 l 1145 138 z m 1204 134 l 1552 442 l 1499 134 z "},"_":{"ha":1003,"x_min":0,"x_max":0,"o":"m 29 -85 l 20 -137 l 936 -137 l 945 -85 z "},"-":{"ha":599,"x_min":0,"x_max":0,"o":"m 111 389 l 101 335 l 614 335 l 623 389 z "},"–":{"ha":860,"x_min":0,"x_max":0,"o":"m 111 389 l 103 339 l 874 339 l 883 389 z "},"—":{"ha":1292,"x_min":0,"x_max":0,"o":"m 111 389 l 103 343 l 1308 343 l 1316 389 z "},"(":{"ha":404,"x_min":0,"x_max":0,"o":"m 302 -88 l 353 -59 b 253 335 306 35 253 165 b 513 924 253 584 348 768 l 476 967 b 192 333 304 809 192 623 b 302 -88 192 155 245 17 z "},")":{"ha":408,"x_min":0,"x_max":0,"o":"m 313 526 b 52 -42 313 290 217 118 l 90 -85 b 374 528 260 69 374 244 b 262 967 374 712 322 858 l 212 937 b 313 526 258 840 313 702 z "},"[":{"ha":476,"x_min":0,"x_max":0,"o":"m 331 978 l 149 -65 l 383 -65 l 392 -15 l 217 -15 l 381 928 l 556 928 l 564 978 z "},"]":{"ha":476,"x_min":0,"x_max":0,"o":"m 303 -65 l 484 978 l 251 978 l 242 928 l 416 928 l 253 -15 l 78 -15 l 69 -65 z "},"{":{"ha":538,"x_min":0,"x_max":0,"o":"m 440 -76 l 448 -26 b 287 37 320 -25 287 -12 b 290 71 287 47 288 58 l 334 324 b 337 357 336 336 337 347 b 259 449 337 410 308 437 b 373 547 318 465 362 483 l 415 788 b 611 913 434 901 487 913 l 619 963 b 359 812 465 963 383 951 l 318 572 b 191 479 309 522 275 493 l 180 422 b 276 347 246 411 276 397 b 272 310 276 336 274 324 l 231 78 b 225 22 228 58 225 39 b 440 -76 225 -49 271 -75 z "},"}":{"ha":537,"x_min":0,"x_max":0,"o":"m 76 -26 l 68 -76 b 328 76 222 -76 304 -64 l 372 328 b 499 420 380 378 414 406 l 509 478 b 414 552 444 488 414 503 b 417 590 414 563 415 575 l 456 808 b 462 864 459 829 462 848 b 247 963 462 935 416 962 l 239 913 b 400 850 367 912 400 899 b 397 816 400 840 399 828 l 356 574 b 352 542 353 563 352 552 b 430 449 352 488 382 462 b 317 352 371 435 328 415 l 273 99 b 76 -26 253 -15 200 -26 z "},"#":{"ha":1018,"x_min":0,"x_max":0,"o":"m 201 1 l 250 -10 l 355 254 l 674 254 l 574 1 l 623 -10 l 728 254 l 961 254 l 969 302 l 747 302 l 865 600 l 1081 600 l 1090 647 l 884 647 l 981 894 l 930 905 l 828 647 l 511 647 l 608 894 l 557 905 l 456 647 l 226 647 l 217 600 l 438 600 l 320 302 l 107 302 l 99 254 l 301 254 z m 374 302 l 492 600 l 810 600 l 692 302 z "},"%":{"ha":970,"x_min":0,"x_max":0,"o":"m 404 892 b 177 672 307 892 177 833 b 357 503 177 563 249 503 b 590 718 469 503 590 567 b 404 892 590 835 511 892 z m 115 28 l 154 -8 l 1007 859 l 970 896 z m 234 679 b 401 842 234 785 313 842 b 532 714 481 842 532 803 b 361 553 532 603 449 553 b 234 679 286 553 234 591 z m 533 158 b 713 -11 533 47 604 -11 b 945 203 824 -11 945 52 b 760 377 945 319 867 377 b 533 158 663 377 533 317 z m 590 164 b 756 327 590 269 668 327 b 888 199 836 327 888 289 b 717 38 888 88 805 38 b 590 164 642 38 590 76 z "},"‰":{"ha":1460,"x_min":0,"x_max":0,"o":"m 404 892 b 177 672 307 892 177 833 b 357 503 177 563 249 503 b 590 718 469 503 590 567 b 404 892 590 835 511 892 z m 115 28 l 154 -8 l 1007 859 l 970 896 z m 234 679 b 401 842 234 785 313 842 b 532 714 481 842 532 803 b 361 553 532 603 449 553 b 234 679 286 553 234 591 z m 533 158 b 713 -11 533 47 604 -11 b 945 203 824 -11 945 52 b 760 377 945 319 867 377 b 533 158 663 377 533 317 z m 590 164 b 756 327 590 269 668 327 b 888 199 836 327 888 289 b 717 38 888 88 805 38 b 590 164 642 38 590 76 z m 1023 158 b 1203 -11 1023 47 1094 -11 b 1435 203 1315 -11 1435 52 b 1250 377 1435 319 1357 377 b 1023 158 1153 377 1023 317 z m 1080 164 b 1246 327 1080 269 1158 327 b 1378 199 1326 327 1378 289 b 1206 38 1378 88 1295 38 b 1080 164 1132 38 1080 76 z "},"'":{"ha":243,"x_min":0,"x_max":0,"o":"m 247 895 l 203 597 l 245 597 l 306 895 z "},"\"":{"ha":399,"x_min":0,"x_max":0,"o":"m 403 895 l 360 597 l 402 597 l 463 895 z m 203 597 l 245 597 l 306 895 l 247 895 z "},"‘":{"ha":282,"x_min":0,"x_max":0,"o":"m 367 881 l 333 899 l 242 744 l 217 602 l 265 602 l 289 736 z "},"’":{"ha":282,"x_min":0,"x_max":0,"o":"m 194 617 l 228 599 l 319 753 l 344 896 l 296 896 l 272 762 z "},"“":{"ha":431,"x_min":0,"x_max":0,"o":"m 515 880 l 481 898 l 390 743 l 365 601 l 413 601 l 437 735 z m 217 601 l 265 601 l 289 735 l 367 880 l 333 898 l 242 743 z "},"”":{"ha":431,"x_min":0,"x_max":0,"o":"m 188 617 l 222 599 l 314 753 l 339 896 l 290 896 l 267 762 z m 336 617 l 370 599 l 462 753 l 487 896 l 438 896 l 415 762 z "},"‚":{"ha":264,"x_min":0,"x_max":0,"o":"m 42 -159 l 76 -177 l 167 -22 l 192 120 l 144 120 l 120 -14 z "},"„":{"ha":412,"x_min":0,"x_max":0,"o":"m 42 -159 l 76 -177 l 167 -22 l 192 120 l 144 120 l 120 -14 z m 190 -159 l 224 -177 l 315 -22 l 340 120 l 292 120 l 268 -14 z "},"‹":{"ha":429,"x_min":0,"x_max":0,"o":"m 117 339 l 340 -11 l 390 24 l 190 333 l 493 649 l 451 691 z "},"›":{"ha":429,"x_min":0,"x_max":0,"o":"m 447 341 l 224 691 l 174 656 l 374 347 l 71 31 l 113 -11 z "},"«":{"ha":678,"x_min":0,"x_max":0,"o":"m 117 339 l 336 -11 l 390 24 l 192 335 l 491 647 l 447 691 z m 358 339 l 585 -11 l 638 24 l 433 335 l 740 647 l 694 691 z "},"»":{"ha":678,"x_min":0,"x_max":0,"o":"m 696 340 l 476 690 l 423 656 l 620 344 l 322 32 l 366 -12 z m 72 32 l 118 -12 l 455 340 l 228 690 l 174 655 l 379 344 z "},"*":{"ha":432,"x_min":0,"x_max":0,"o":"m 309 665 l 285 525 l 333 525 l 357 665 l 469 593 l 494 633 l 385 705 l 523 777 l 504 818 l 372 749 l 395 887 l 348 887 l 323 744 l 208 818 l 182 778 l 292 707 l 153 633 l 172 592 z "},"†":{"ha":511,"x_min":0,"x_max":0,"o":"m 330 608 l 216 -85 l 265 -85 l 391 608 l 544 608 l 552 657 l 399 657 l 445 923 l 384 923 l 338 657 l 187 657 l 178 608 z "},"‡":{"ha":512,"x_min":0,"x_max":0,"o":"m 282 321 l 216 -85 l 265 -85 l 339 321 l 493 321 l 502 369 l 347 369 l 390 608 l 543 608 l 551 657 l 399 657 l 444 923 l 383 923 l 338 657 l 187 657 l 178 608 l 329 608 l 290 369 l 137 369 l 128 321 z "},".":{"ha":247,"x_min":0,"x_max":0,"o":"m 112 131 l 89 0 l 158 0 l 181 131 z "},",":{"ha":283,"x_min":0,"x_max":0,"o":"m 89 -199 l 184 -28 l 211 131 l 162 131 l 136 -18 l 54 -181 z "},":":{"ha":247,"x_min":0,"x_max":0,"o":"m 206 674 l 183 543 l 252 543 l 275 674 z m 89 0 l 158 0 l 181 131 l 112 131 z "},";":{"ha":283,"x_min":0,"x_max":0,"o":"m 235 674 l 213 543 l 282 543 l 305 674 z m 54 -181 l 89 -199 l 184 -28 l 211 131 l 162 131 l 136 -18 z "},"…":{"ha":688,"x_min":0,"x_max":0,"o":"m 551 131 l 528 0 l 598 0 l 621 131 z m 89 0 l 158 0 l 181 131 l 112 131 z m 305 0 l 374 0 l 397 131 l 328 131 z "},"!":{"ha":425,"x_min":0,"x_max":0,"o":"m 283 592 l 228 224 l 274 224 l 345 589 l 399 895 l 336 895 z m 177 0 l 247 0 l 266 109 l 196 109 z "},"¡":{"ha":425,"x_min":0,"x_max":0,"o":"m 275 181 l 331 549 l 285 549 l 213 183 l 160 -123 l 222 -123 z m 292 663 l 363 663 l 381 772 l 311 772 z "},"?":{"ha":715,"x_min":0,"x_max":0,"o":"m 283 109 l 265 0 l 335 0 l 353 109 z m 180 840 l 197 785 b 519 851 310 828 417 851 b 713 715 630 851 713 817 b 497 505 713 631 635 579 b 315 296 392 449 332 397 l 303 229 l 369 229 l 380 292 b 524 451 393 365 442 406 b 780 725 672 530 780 585 b 524 908 780 848 691 908 b 180 840 388 908 276 877 z "},"¿":{"ha":715,"x_min":0,"x_max":0,"o":"m 581 663 l 600 772 l 530 772 l 511 663 z m 85 47 b 340 -135 85 -76 174 -135 b 685 -68 477 -135 589 -105 l 668 -13 b 346 -79 555 -56 448 -79 b 151 58 235 -79 151 -45 b 367 267 151 142 230 193 b 550 476 473 324 533 375 l 562 543 l 496 543 l 485 480 b 340 322 472 407 423 366 b 85 47 193 242 85 187 z "},"/":{"ha":515,"x_min":0,"x_max":0,"o":"m -12 -195 l 42 -217 l 672 1033 l 617 1056 z "},"\\":{"ha":516,"x_min":0,"x_max":0,"o":"m 201 1038 l 403 -217 l 458 -206 l 257 1050 z "},"⁄":{"ha":263,"x_min":0,"x_max":0,"o":"m -144 8 l -106 -22 l 556 856 l 520 888 z "},"|":{"ha":407,"x_min":0,"x_max":0,"o":"m 357 1059 l 123 -297 l 181 -297 l 415 1059 z "},"¦":{"ha":408,"x_min":0,"x_max":0,"o":"m 226 301 l 123 -297 l 181 -297 l 285 301 z m 258 486 l 317 486 l 415 1059 l 357 1059 z "},"@":{"ha":1488,"x_min":0,"x_max":0,"o":"m 692 -179 b 1094 -110 896 -179 1017 -141 l 1077 -65 b 705 -130 1000 -94 886 -130 b 258 292 447 -130 258 -15 b 908 868 258 647 553 868 b 1367 472 1189 868 1367 752 b 1171 112 1367 221 1253 112 b 1098 175 1124 112 1098 129 b 1101 206 1098 184 1099 194 l 1125 349 b 1136 456 1132 389 1136 425 b 876 681 1136 622 1044 681 b 608 626 770 681 671 650 l 625 577 b 878 631 671 597 773 631 b 1080 422 1034 631 1084 568 b 919 435 1037 428 978 435 b 478 209 642 435 478 355 b 670 60 478 98 565 60 b 1044 190 821 60 956 123 b 1160 60 1037 119 1068 60 b 1424 485 1288 60 1424 192 b 913 919 1424 790 1217 919 b 200 281 563 919 200 715 b 692 -179 200 -49 416 -179 z m 541 215 b 931 388 541 315 658 388 b 1075 377 992 388 1034 382 l 1055 253 b 681 110 958 171 813 110 b 541 215 590 110 541 146 z "},"&":{"ha":1117,"x_min":0,"x_max":0,"o":"m 456 -12 b 838 122 611 -12 735 24 b 1002 -12 888 82 942 38 l 1040 36 b 875 169 980 84 924 128 b 989 472 931 250 967 335 l 934 472 b 832 204 914 351 882 276 b 426 688 512 469 426 565 b 642 849 426 807 528 849 b 853 806 711 849 782 833 l 874 859 b 646 901 816 881 740 901 b 360 681 497 901 360 843 b 449 472 360 606 386 544 b 185 194 281 407 185 324 b 456 -12 185 30 323 -12 z m 251 195 b 485 430 251 311 336 374 b 795 158 552 362 651 276 b 467 45 702 71 583 45 b 251 195 335 45 251 89 z "},"§":{"ha":945,"x_min":0,"x_max":0,"o":"m 456 -180 b 815 55 670 -180 815 -106 b 749 190 815 122 790 164 b 903 386 835 228 903 285 b 360 691 903 703 360 454 b 628 850 360 791 469 850 b 884 801 734 850 810 829 l 909 850 b 636 901 845 875 746 901 b 301 685 454 901 301 834 b 388 549 301 609 336 572 b 213 350 292 517 213 457 b 759 45 213 57 759 310 b 460 -127 759 -60 652 -127 b 150 -51 310 -127 219 -92 l 123 -100 b 456 -180 181 -137 288 -180 z m 272 358 b 460 527 274 453 356 499 b 847 381 622 502 847 549 b 692 217 847 313 788 251 b 272 358 533 266 272 198 z "},"¶":{"ha":901,"x_min":0,"x_max":0,"o":"m 463 365 l 590 365 l 503 -141 l 565 -141 l 742 878 l 551 878 b 182 576 317 878 182 759 b 463 365 182 426 290 365 z m 640 -141 l 701 -141 l 877 878 l 815 878 z "},"·":{"ha":248,"x_min":0,"x_max":0,"o":"m 194 560 l 171 429 l 240 429 l 263 560 z "},"•":{"ha":319,"x_min":0,"x_max":0,"o":"m 176 512 l 147 342 l 291 342 l 320 512 z "},"+":{"ha":815,"x_min":0,"x_max":0,"o":"m 444 387 l 394 107 l 455 107 l 504 387 l 808 387 l 817 442 l 514 442 l 557 692 l 497 692 l 453 442 l 149 442 l 140 387 z "},"−":{"ha":841,"x_min":0,"x_max":0,"o":"m 149 442 l 140 387 l 835 387 l 844 442 z "},"±":{"ha":815,"x_min":0,"x_max":0,"o":"m 465 510 l 417 236 l 477 236 l 525 510 l 829 510 l 839 565 l 535 565 l 578 812 l 517 812 l 475 565 l 170 565 l 161 510 z m 85 67 l 753 67 l 763 123 l 94 123 z "},"÷":{"ha":841,"x_min":0,"x_max":0,"o":"m 422 238 l 406 145 l 476 145 l 492 238 z m 140 385 l 834 385 l 844 441 l 149 441 z m 480 576 l 551 576 l 567 669 l 496 669 z "},"×":{"ha":708,"x_min":0,"x_max":0,"o":"m 108 150 l 145 110 l 422 345 l 626 111 l 670 151 l 469 381 l 733 601 l 697 644 l 434 421 l 241 641 l 199 603 l 387 387 z "},"=":{"ha":815,"x_min":0,"x_max":0,"o":"m 132 339 l 122 283 l 790 283 l 800 339 z m 158 488 l 826 488 l 835 544 l 167 544 z "},"<":{"ha":899,"x_min":0,"x_max":0,"o":"m 185 357 l 769 56 l 799 109 l 238 395 l 904 662 l 884 717 l 200 439 z "},">":{"ha":894,"x_min":0,"x_max":0,"o":"m 859 421 l 276 722 l 246 669 l 807 383 l 140 116 l 160 60 l 844 339 z "},"≤":{"ha":926,"x_min":0,"x_max":0,"o":"m 207 478 l 828 215 l 858 271 l 267 518 l 940 741 l 924 797 l 221 561 z m 124 1 l 819 1 l 828 56 l 134 56 z "},"≥":{"ha":934,"x_min":0,"x_max":0,"o":"m 178 274 l 198 217 l 903 458 l 917 540 l 299 799 l 274 744 l 858 502 z m 130 1 l 824 1 l 834 56 l 140 56 z "},"≈":{"ha":794,"x_min":0,"x_max":0,"o":"m 468 283 b 600 247 509 265 549 247 b 774 305 670 247 718 267 l 747 347 b 608 304 705 319 663 304 b 487 338 561 304 526 321 b 337 375 444 356 399 375 b 128 308 256 375 178 337 l 146 260 b 330 318 194 287 261 318 b 468 283 387 318 428 300 z m 166 537 l 185 490 b 368 547 232 516 299 547 b 501 515 423 547 463 531 b 638 476 544 496 585 476 b 813 535 708 476 756 497 l 786 576 b 646 533 743 549 701 533 b 521 569 598 533 562 551 b 376 604 481 587 435 604 b 166 537 295 604 217 566 z "},"≠":{"ha":815,"x_min":0,"x_max":0,"o":"m 295 126 l 349 108 l 439 283 l 790 283 l 799 336 l 466 336 l 545 492 l 826 492 l 835 544 l 572 544 l 657 711 l 603 731 l 508 544 l 167 544 l 158 492 l 481 492 l 402 336 l 131 336 l 122 283 l 376 283 z "},"¬":{"ha":836,"x_min":0,"x_max":0,"o":"m 769 342 l 743 192 l 797 192 l 832 394 l 142 394 l 133 342 z "},"←":{"ha":1117,"x_min":0,"x_max":0,"o":"m 203 430 l 422 174 l 467 212 l 281 426 l 1099 426 l 1108 481 l 292 481 l 551 695 l 517 736 l 210 478 z "},"↑":{"ha":778,"x_min":0,"x_max":0,"o":"m 502 815 l 361 0 l 417 0 l 558 814 l 732 593 l 778 631 l 567 897 l 520 897 l 219 635 l 253 596 z "},"→":{"ha":1117,"x_min":0,"x_max":0,"o":"m 723 212 l 758 172 l 1064 431 l 1072 478 l 853 735 l 806 696 l 992 481 l 175 481 l 165 426 l 983 426 z "},"↓":{"ha":778,"x_min":0,"x_max":0,"o":"m 156 266 l 367 0 l 413 0 l 714 260 l 681 301 l 432 83 l 572 897 l 517 897 l 376 83 l 201 303 z "},"∂":{"ha":1067,"x_min":0,"x_max":0,"o":"m 513 -11 b 1022 526 794 -11 1022 151 b 659 907 1022 759 906 907 b 322 823 528 907 411 869 l 343 772 b 658 851 444 822 550 851 b 958 515 852 851 958 736 b 953 438 958 490 956 465 b 606 558 876 503 769 558 b 200 236 459 558 200 491 b 513 -11 200 63 345 -11 z m 265 244 b 603 503 265 432 444 503 b 944 378 760 503 857 452 b 515 44 888 131 700 44 b 265 244 363 44 265 115 z "},"∆":{"ha":1079,"x_min":0,"x_max":0,"o":"m 55 0 l 1024 0 l 749 982 l 666 982 z m 160 56 l 701 930 l 941 56 z "},"∏":{"ha":1065,"x_min":0,"x_max":0,"o":"m 331 895 l 148 -162 l 211 -162 l 384 841 l 972 841 l 799 -162 l 862 -162 l 1044 895 z "},"∑":{"ha":978,"x_min":0,"x_max":0,"o":"m 111 -81 l 98 -160 l 863 -160 l 872 -105 l 172 -105 l 714 372 l 333 840 l 1027 840 l 1037 895 l 278 895 l 265 824 l 634 374 z "},"µ":{"ha":1006,"x_min":0,"x_max":0,"o":"m 278 674 l 114 -274 l 174 -274 l 219 -9 b 231 77 224 19 229 51 b 444 -12 265 10 343 -12 b 806 94 614 -12 763 68 l 797 0 l 844 0 l 961 674 l 902 674 l 812 151 b 453 43 783 133 619 43 b 262 199 324 43 262 78 b 272 298 262 226 265 260 l 337 674 z "},"∕":{"ha":470,"x_min":0,"x_max":0,"o":"m -12 -195 l 42 -217 l 672 1033 l 617 1056 z "},"√":{"ha":898,"x_min":0,"x_max":0,"o":"m 250 486 l 381 0 l 458 0 l 1052 963 l 1005 992 l 426 54 l 301 542 l 136 542 l 126 486 z "},"∞":{"ha":1306,"x_min":0,"x_max":0,"o":"m 1195 368 b 978 147 1195 238 1110 147 b 797 253 897 147 840 190 l 742 332 l 846 436 b 1044 531 919 510 986 531 b 1195 368 1142 531 1195 471 z m 167 306 b 377 96 167 175 247 96 b 629 220 469 96 544 138 l 701 290 l 749 221 b 978 96 813 129 886 96 b 1256 376 1142 96 1256 203 b 1047 583 1256 510 1176 583 b 812 474 960 583 883 548 l 714 374 l 644 476 b 446 583 592 553 535 583 b 167 306 294 583 167 480 z m 227 310 b 441 531 227 442 315 531 b 595 440 506 531 547 509 l 670 333 l 588 253 b 383 147 527 195 464 147 b 227 310 285 147 227 211 z "},"∫":{"ha":753,"x_min":0,"x_max":0,"o":"m -28 -199 l -47 -251 b 117 -274 -7 -262 48 -274 b 394 -80 260 -274 368 -235 l 543 777 b 758 927 562 890 624 927 b 906 907 827 927 858 919 l 923 959 b 760 983 885 969 826 983 b 483 788 617 983 509 944 l 335 -69 b 121 -219 315 -182 254 -219 b -28 -199 52 -219 19 -212 z "},"$":{"ha":882,"x_min":0,"x_max":0,"o":"m 335 60 l 313 -73 l 361 -73 l 383 55 b 458 52 406 53 431 52 b 511 54 476 52 494 53 l 490 -73 l 538 -73 l 560 59 b 829 308 721 81 829 159 b 633 476 829 428 740 463 l 683 770 b 822 732 738 761 783 747 l 841 777 b 691 816 805 791 753 806 l 717 970 l 669 970 l 644 822 b 567 826 619 824 594 826 b 516 824 551 826 533 825 l 541 970 l 492 970 l 466 818 b 223 602 343 799 223 741 b 401 443 223 495 297 458 l 344 110 b 151 172 264 123 199 147 l 131 125 b 335 60 172 102 240 74 z m 278 604 b 458 769 278 697 351 749 l 410 496 b 278 604 334 507 278 531 z m 391 103 l 449 437 b 506 433 467 435 487 435 l 576 429 l 519 102 b 464 100 501 101 483 100 b 391 103 439 100 415 101 z m 458 490 l 508 777 b 572 780 528 779 549 780 b 636 776 594 780 616 778 l 585 481 b 519 485 563 483 540 485 z m 569 109 l 624 424 b 777 297 710 413 776 385 b 569 109 777 203 702 131 z "},"¢":{"ha":841,"x_min":0,"x_max":0,"o":"m 163 313 b 349 56 163 180 227 92 l 326 -73 l 376 -73 l 396 45 b 494 37 426 40 459 37 b 523 38 504 37 514 37 l 504 -73 l 554 -73 l 574 42 b 785 103 649 51 713 72 l 765 151 b 583 96 715 130 653 107 l 676 635 b 815 597 718 628 765 617 l 838 647 b 685 688 799 663 753 680 l 707 813 l 658 813 l 637 693 b 590 694 622 694 606 694 b 508 688 561 694 534 692 l 529 813 l 479 813 l 456 678 b 163 313 288 636 163 509 z m 227 317 b 446 620 227 467 316 576 l 358 112 b 227 317 274 144 227 210 z m 406 99 l 498 633 b 587 642 526 640 556 642 b 627 641 600 642 613 642 l 533 90 b 503 90 523 90 513 90 b 406 99 467 90 435 92 z "},"£":{"ha":849,"x_min":0,"x_max":0,"o":"m 154 63 l 144 0 l 769 0 l 778 54 l 221 54 l 346 422 l 778 422 l 788 477 l 365 477 l 433 678 b 683 851 484 828 592 851 b 907 815 769 851 847 834 l 928 867 b 688 907 864 889 783 907 b 374 690 569 907 439 876 l 299 477 l 169 477 l 160 422 l 280 422 z "},"¤":{"ha":844,"x_min":0,"x_max":0,"o":"m 185 138 l 295 229 b 462 180 334 198 390 180 b 634 227 529 180 588 197 l 709 137 l 748 168 l 675 259 b 754 452 726 307 753 376 b 710 579 754 500 739 544 l 817 667 l 788 705 l 675 611 b 525 656 638 639 588 656 b 368 618 471 656 415 644 l 297 708 l 257 676 l 326 590 b 229 385 266 540 230 468 b 264 264 229 339 238 299 l 154 175 z m 284 385 b 521 610 285 517 381 610 b 699 449 640 610 699 533 b 468 226 699 328 615 226 b 284 385 343 226 284 290 z "},"¥":{"ha":1065,"x_min":0,"x_max":0,"o":"m 322 417 l 313 363 l 490 363 l 547 265 l 296 265 l 288 211 l 552 211 l 515 0 l 577 0 l 615 211 l 893 211 l 902 265 l 640 265 l 726 363 l 919 363 l 928 417 l 775 417 l 1178 866 l 1135 905 l 596 304 l 241 906 l 189 873 l 458 417 z "},"€":{"ha":1033,"x_min":0,"x_max":0,"o":"m 622 -11 b 959 81 740 -11 848 19 l 931 134 b 626 48 852 90 758 48 b 317 333 453 48 328 142 l 727 333 l 737 388 l 317 388 b 329 497 317 426 322 463 l 760 497 l 769 551 l 344 551 b 763 848 405 744 566 848 b 1031 783 855 848 938 828 l 1060 838 b 766 907 964 884 885 907 b 275 551 573 907 348 810 l 165 551 l 156 497 l 261 497 b 250 388 255 463 251 426 l 133 388 l 123 333 l 251 333 b 622 -11 263 92 424 -11 z "},"ƒ":{"ha":788,"x_min":0,"x_max":0,"o":"m -137 -210 l -156 -263 b 23 -290 -115 -278 -48 -290 b 326 -78 207 -290 292 -207 l 451 399 l 792 399 l 801 449 l 465 449 l 522 672 b 757 825 555 800 622 825 b 925 808 825 825 869 819 l 940 860 b 764 878 887 870 837 878 b 465 684 607 878 506 848 l 403 449 l 191 449 l 182 399 l 390 399 l 265 -72 b 28 -236 235 -182 158 -236 b -137 -210 -35 -236 -88 -226 z "},"₱":{"ha":1140,"x_min":0,"x_max":0,"o":"m 233 0 l 294 0 l 341 267 l 675 267 b 1069 458 876 267 1013 323 l 1197 458 l 1206 512 l 1087 512 b 1097 644 1096 554 1099 605 l 1228 644 l 1238 699 l 1090 699 b 788 895 1059 823 953 895 l 388 895 l 353 699 l 215 699 l 206 644 l 344 644 l 321 512 l 183 512 l 174 458 l 311 458 z m 351 325 l 374 458 l 994 458 b 685 325 949 381 858 325 z m 384 512 l 406 644 l 1030 644 b 1019 512 1035 602 1031 554 z m 416 699 l 440 838 l 776 838 b 1018 699 915 838 990 783 z "},"^":{"ha":684,"x_min":0,"x_max":0,"o":"m 147 531 l 192 492 l 497 853 l 667 496 l 719 519 l 539 895 l 458 895 z "},"~":{"ha":722,"x_min":0,"x_max":0,"o":"m 311 385 b 412 340 358 385 383 362 b 534 294 453 310 484 294 b 718 388 616 294 676 336 l 687 424 b 540 351 638 372 599 351 b 444 394 505 351 478 367 b 315 440 416 416 383 440 b 134 360 243 440 177 397 l 160 318 b 311 385 205 351 256 385 z "},"´":{"ha":524,"x_min":0,"x_max":0,"o":"m 291 1050 l 313 1001 l 611 1136 l 585 1192 z "},"`":{"ha":491,"x_min":0,"x_max":0,"o":"m 306 1139 l 528 1002 l 561 1047 l 345 1192 z "},"˝":{"ha":740,"x_min":0,"x_max":0,"o":"m 366 1037 l 403 1000 l 647 1207 l 606 1251 z m 623 1044 l 657 1003 l 914 1192 l 877 1240 z "},"ˆ":{"ha":629,"x_min":0,"x_max":0,"o":"m 283 1040 l 320 999 l 520 1167 l 663 999 l 704 1033 l 552 1207 l 492 1207 z "},"ˇ":{"ha":601,"x_min":0,"x_max":0,"o":"m 302 1187 l 453 1016 l 513 1016 l 717 1184 l 681 1222 l 485 1057 l 344 1222 z "},"˘":{"ha":604,"x_min":0,"x_max":0,"o":"m 366 1197 l 315 1194 b 314 1159 314 1182 314 1171 b 475 1003 314 1067 356 1003 b 700 1190 608 1003 670 1078 l 647 1198 b 478 1053 610 1086 556 1053 b 365 1180 408 1053 365 1081 b 366 1197 365 1185 365 1191 z "},"˜":{"ha":691,"x_min":0,"x_max":0,"o":"m 516 1052 b 622 1012 554 1026 583 1012 b 774 1116 678 1012 724 1039 l 731 1140 b 626 1063 695 1086 666 1063 b 545 1098 599 1063 578 1076 b 439 1143 503 1128 480 1143 b 291 1044 390 1143 338 1116 l 331 1018 b 435 1091 365 1063 399 1091 b 516 1052 464 1091 481 1077 z "},"¯":{"ha":599,"x_min":0,"x_max":0,"o":"m 297 1082 l 288 1029 l 666 1029 l 675 1082 z "},"¨":{"ha":488,"x_min":0,"x_max":0,"o":"m 303 1119 l 286 1024 l 353 1024 l 369 1119 z m 489 1024 l 556 1024 l 572 1119 l 505 1119 z "},"˙":{"ha":286,"x_min":0,"x_max":0,"o":"m 303 1119 l 286 1024 l 353 1024 l 369 1119 z "},"˚":{"ha":502,"x_min":0,"x_max":0,"o":"m 427 990 b 585 1122 516 990 585 1046 b 458 1231 584 1190 538 1231 b 301 1097 367 1231 301 1172 b 427 990 301 1032 345 990 z m 351 1102 b 455 1190 351 1149 394 1190 b 535 1117 509 1190 535 1160 b 431 1031 535 1070 490 1031 b 351 1102 375 1031 351 1060 z "},"¸":{"ha":506,"x_min":0,"x_max":0,"o":"m 92 -222 l 77 -267 b 186 -283 100 -275 140 -283 b 370 -129 301 -283 370 -228 b 238 37 370 -53 338 5 l 201 6 b 317 -129 300 -24 317 -78 b 194 -238 317 -204 260 -238 b 92 -222 152 -238 115 -230 z "},"˛":{"ha":592,"x_min":0,"x_max":0,"o":"m 353 6 l 317 35 b 124 -167 177 -22 124 -87 b 256 -284 124 -242 175 -284 b 369 -261 299 -284 335 -275 l 356 -219 b 262 -239 328 -231 301 -239 b 179 -162 208 -239 179 -214 b 353 6 179 -101 218 -50 z "},"©":{"ha":1187,"x_min":0,"x_max":0,"o":"m 671 -11 b 1146 447 958 -11 1146 176 b 671 904 1146 717 955 904 b 195 447 384 904 195 717 b 671 -11 195 176 381 -11 z m 251 447 b 671 855 251 685 415 855 b 1090 447 926 855 1090 685 b 671 39 1090 208 925 39 b 251 447 415 39 251 208 z m 405 440 b 672 196 405 275 521 196 b 869 250 739 196 816 218 l 844 293 b 674 247 804 272 741 247 b 465 438 559 247 465 303 b 682 638 465 569 563 638 b 838 601 732 638 782 625 l 858 648 b 678 688 818 666 763 688 b 405 440 536 688 405 601 z "},"®":{"ha":725,"x_min":0,"x_max":0,"o":"m 501 615 l 399 615 l 399 709 l 499 709 b 559 662 540 709 559 692 b 501 615 559 631 543 615 z m 169 622 b 469 335 169 450 288 335 b 770 622 651 335 770 450 b 469 908 770 793 649 908 b 169 622 290 908 169 793 z m 215 622 b 469 867 215 765 312 867 b 724 622 626 867 724 765 b 469 376 724 478 626 376 b 215 622 312 376 215 478 z m 354 496 l 399 496 l 399 578 l 499 578 b 517 579 505 578 511 578 l 553 492 l 592 506 l 557 588 b 603 661 587 599 603 624 b 500 745 603 719 567 745 l 354 745 z "},"™":{"ha":1399,"x_min":0,"x_max":0,"o":"m 788 895 l 788 451 l 838 451 l 838 833 l 1040 481 l 1099 481 l 1301 835 l 1301 451 l 1352 451 l 1352 895 l 1283 895 l 1072 526 l 860 895 z m 192 852 l 419 852 l 419 451 l 471 451 l 471 852 l 683 852 l 683 896 l 192 896 z "},"°":{"ha":607,"x_min":0,"x_max":0,"o":"m 422 467 b 656 687 564 467 656 555 b 422 907 656 819 561 907 b 189 687 282 907 189 819 b 422 467 189 555 280 467 z m 246 687 b 422 857 246 777 308 857 b 598 687 537 857 598 777 b 422 518 598 597 537 518 b 246 687 308 518 246 597 z "},"◊":{"ha":883,"x_min":0,"x_max":0,"o":"m 199 442 l 400 0 l 481 0 l 836 438 l 635 895 l 551 895 z m 269 435 l 589 852 l 769 445 l 446 47 z "},"₹":{"ha":976,"x_min":0,"x_max":0,"o":"m 594 322 l 697 -11 l 758 10 l 655 337 b 870 582 771 374 852 453 l 985 582 l 994 636 l 874 636 b 748 841 877 715 844 806 l 1030 841 l 1039 896 l 339 896 l 329 841 l 534 841 b 811 636 706 841 810 784 l 294 636 l 285 582 l 806 582 b 476 367 783 447 669 367 l 247 367 l 238 313 l 476 313 b 594 322 519 313 558 315 z "},"ﬀ":{"ha":1217,"x_min":0,"x_max":0,"o":"m 311 622 l 203 0 l 262 0 l 370 622 l 887 622 l 778 0 l 838 0 l 946 622 l 1309 622 l 1318 674 l 954 674 l 974 790 b 1222 937 996 913 1094 937 b 1390 919 1287 937 1338 929 l 1404 971 b 1228 992 1383 974 1299 992 b 917 800 1081 992 944 960 l 895 674 l 378 674 l 397 776 b 639 922 417 899 514 922 b 800 906 700 922 751 915 l 815 957 b 644 977 794 960 712 977 b 339 786 501 977 365 947 l 319 674 l 185 674 l 177 622 z "},"ﬁ":{"ha":940,"x_min":0,"x_max":0,"o":"m 311 622 l 203 0 l 262 0 l 370 622 l 842 622 l 734 0 l 793 0 l 910 674 l 378 674 l 399 790 b 669 937 421 913 528 937 b 865 919 745 937 808 929 l 879 971 b 675 992 833 981 749 992 b 342 800 516 992 371 960 l 319 674 l 185 674 l 177 622 z "},"ﬂ":{"ha":1002,"x_min":0,"x_max":0,"o":"m 311 622 l 203 0 l 262 0 l 370 622 l 703 622 l 711 674 l 378 674 l 399 790 b 631 937 419 913 512 937 b 785 919 690 937 738 929 l 799 971 b 637 992 766 978 693 992 b 342 800 498 992 367 960 l 319 674 l 185 674 l 177 622 z m 795 0 l 854 0 l 1024 982 l 965 982 z "},"ﬃ":{"ha":1517,"x_min":0,"x_max":0,"o":"m 311 622 l 203 0 l 262 0 l 370 622 l 887 622 l 778 0 l 838 0 l 946 622 l 1419 622 l 1311 0 l 1370 0 l 1487 674 l 954 674 l 974 790 b 1247 937 997 913 1106 937 b 1444 919 1323 937 1385 929 l 1458 971 b 1253 992 1411 981 1326 992 b 917 800 1094 992 947 960 l 895 674 l 378 674 l 397 776 b 639 922 417 899 514 922 b 800 906 700 922 751 915 l 815 957 b 644 977 794 960 712 977 b 339 786 501 977 365 947 l 319 674 l 185 674 l 177 622 z "},"ﬄ":{"ha":1578,"x_min":0,"x_max":0,"o":"m 311 622 l 203 0 l 262 0 l 370 622 l 886 622 l 778 0 l 838 0 l 946 622 l 1281 622 l 1290 674 l 954 674 l 974 790 b 1210 937 995 913 1090 937 b 1363 919 1269 937 1317 929 l 1378 971 b 1216 992 1344 978 1272 992 b 917 800 1076 992 943 960 l 895 674 l 378 674 l 397 776 b 639 922 417 899 514 922 b 800 906 700 922 751 915 l 815 957 b 644 977 794 960 712 977 b 339 786 501 977 365 947 l 319 674 l 185 674 l 177 622 z m 1371 0 l 1430 0 l 1599 982 l 1540 982 z "},"₀":{"ha":764,"x_min":0,"x_max":0,"o":"m 342 -214 b 656 83 517 -214 656 -110 b 425 296 656 227 550 296 b 115 -1 283 296 115 200 b 342 -214 115 -146 217 -214 z m 172 3 b 423 246 172 156 288 246 b 599 74 522 246 599 192 b 350 -165 599 -83 474 -165 b 172 3 247 -165 172 -110 z "},"₁":{"ha":764,"x_min":0,"x_max":0,"o":"m 144 -150 l 135 -197 l 597 -197 l 605 -150 l 408 -150 l 483 283 l 434 283 l 255 242 l 256 194 l 423 232 l 357 -150 z "},"₂":{"ha":764,"x_min":0,"x_max":0,"o":"m 476 85 l 338 47 b 122 -127 178 4 135 -52 l 110 -197 l 606 -197 l 614 -151 l 172 -151 l 177 -121 b 359 6 186 -71 221 -31 l 490 41 b 660 184 615 76 660 110 b 461 296 660 258 599 296 b 220 247 375 296 288 273 l 236 202 b 458 249 308 229 392 249 b 603 180 557 249 603 231 b 476 85 603 135 574 112 z "},"₃":{"ha":764,"x_min":0,"x_max":0,"o":"m 123 -125 l 106 -172 b 335 -214 156 -194 242 -214 b 627 -39 508 -214 627 -167 b 511 65 627 22 579 60 b 624 189 579 78 624 121 b 451 296 624 272 547 296 b 219 253 356 296 276 274 l 231 208 b 444 249 297 232 383 249 b 566 183 533 249 566 225 b 397 78 566 119 507 78 l 269 78 l 260 34 l 390 34 b 570 -46 494 34 570 22 b 342 -165 570 -123 488 -165 b 123 -125 255 -165 182 -148 z "},"₄":{"ha":764,"x_min":0,"x_max":0,"o":"m 492 -106 l 476 -197 l 526 -197 l 542 -106 l 642 -106 l 649 -62 l 549 -62 l 609 284 l 531 284 l 146 -58 l 138 -106 z m 205 -62 l 553 247 l 499 -62 z "},"₅":{"ha":764,"x_min":0,"x_max":0,"o":"m 149 -111 l 128 -157 b 372 -213 184 -187 268 -213 b 651 -33 521 -213 651 -155 b 452 104 651 71 567 104 b 256 60 374 104 308 84 l 303 239 l 628 239 l 636 284 l 269 284 l 201 37 l 242 10 b 443 58 303 36 367 58 b 596 -39 565 58 596 19 b 378 -165 596 -127 481 -165 b 149 -111 292 -165 214 -144 z "},"₆":{"ha":764,"x_min":0,"x_max":0,"o":"m 386 -214 b 652 -27 541 -214 652 -144 b 472 111 652 75 572 111 b 206 3 369 111 274 72 b 207 26 206 10 206 17 b 478 248 217 174 339 248 b 632 221 540 248 588 236 l 650 267 b 481 296 611 282 557 296 b 151 -2 293 296 151 186 b 386 -214 151 -149 253 -214 z m 210 -46 b 467 65 275 20 371 65 b 598 -31 535 65 598 42 b 391 -168 598 -129 492 -168 b 210 -46 305 -168 229 -133 z "},"₇":{"ha":764,"x_min":0,"x_max":0,"o":"m 230 -180 l 269 -215 l 694 229 l 703 284 l 188 284 l 181 239 l 635 239 z "},"₈":{"ha":764,"x_min":0,"x_max":0,"o":"m 308 51 b 130 -98 206 29 130 -16 b 358 -214 130 -183 224 -214 b 633 -72 506 -214 633 -173 b 501 49 633 2 570 36 b 646 178 578 63 646 101 b 447 296 646 253 564 296 b 205 154 317 296 205 249 b 308 51 205 92 255 66 z m 187 -89 b 401 25 187 -19 288 25 b 576 -74 500 25 576 -8 b 365 -168 576 -129 496 -168 b 187 -89 244 -168 187 -142 z m 261 158 b 440 253 261 215 331 253 b 590 174 537 253 590 224 b 407 69 590 107 494 69 b 261 158 339 69 261 100 z "},"₉":{"ha":764,"x_min":0,"x_max":0,"o":"m 335 -213 b 662 83 526 -213 662 -110 b 428 296 662 228 560 296 b 169 107 303 296 169 239 b 351 -31 169 -1 257 -31 b 606 66 454 -31 541 6 b 606 49 606 60 606 55 b 340 -166 594 -97 476 -166 b 170 -137 273 -166 215 -153 l 153 -183 b 335 -213 197 -201 262 -213 z m 225 110 b 427 250 225 202 315 250 b 605 117 513 250 590 213 b 354 17 540 56 456 17 b 225 110 288 17 225 35 z "},"₍":{"ha":382,"x_min":0,"x_max":0,"o":"m 329 284 l 296 323 b 142 10 220 261 142 171 b 212 -242 142 -105 180 -184 l 258 -216 b 198 6 232 -167 198 -79 b 329 284 198 140 253 218 z "},"₎":{"ha":382,"x_min":0,"x_max":0,"o":"m 88 -218 l 122 -257 b 275 56 197 -195 275 -105 b 206 308 275 171 238 250 l 159 282 b 219 60 185 233 219 145 b 88 -218 219 -74 164 -152 z "},"¹":{"ha":764,"x_min":0,"x_max":0,"o":"m 272 568 l 263 522 l 724 522 l 732 568 l 535 568 l 610 1001 l 561 1001 l 382 960 l 383 913 l 550 950 l 484 568 z "},"²":{"ha":764,"x_min":0,"x_max":0,"o":"m 603 803 l 465 765 b 249 591 306 722 262 666 l 238 522 l 733 522 l 741 567 l 299 567 l 304 597 b 486 724 313 647 348 687 l 617 759 b 787 902 742 794 787 828 b 588 1014 787 976 726 1014 b 347 965 502 1014 415 991 l 363 920 b 585 967 435 947 519 967 b 731 898 684 967 731 949 b 603 803 731 853 701 830 z "},"³":{"ha":764,"x_min":0,"x_max":0,"o":"m 250 593 l 233 547 b 463 504 283 524 369 504 b 754 679 635 504 754 551 b 638 783 754 740 706 778 b 751 907 706 797 751 839 b 578 1014 751 990 674 1014 b 346 972 483 1014 403 992 l 358 926 b 572 967 424 950 510 967 b 693 901 660 967 693 943 b 524 796 693 837 634 796 l 396 796 l 388 752 l 517 752 b 697 672 622 752 697 740 b 469 553 697 595 615 553 b 250 593 382 553 309 570 z "},"⁰":{"ha":764,"x_min":0,"x_max":0,"o":"m 469 504 b 783 801 644 504 783 608 b 552 1014 783 945 677 1014 b 242 717 410 1014 242 918 b 469 504 242 572 344 504 z m 299 722 b 550 964 299 874 415 964 b 726 792 649 964 726 910 b 477 553 726 635 601 553 b 299 722 374 553 299 608 z "},"⁴":{"ha":764,"x_min":0,"x_max":0,"o":"m 619 612 l 603 522 l 653 522 l 669 612 l 769 612 l 776 656 l 676 656 l 736 1002 l 658 1002 l 273 660 l 265 612 z m 332 656 l 680 965 l 626 656 z "},"⁵":{"ha":764,"x_min":0,"x_max":0,"o":"m 276 607 l 256 561 b 499 505 311 531 395 505 b 778 685 648 505 778 563 b 579 822 778 789 694 822 b 383 778 501 822 435 802 l 431 957 l 756 957 l 763 1002 l 397 1002 l 328 755 l 369 728 b 570 776 430 754 494 776 b 723 679 692 776 723 738 b 506 553 723 591 608 553 b 276 607 419 553 341 574 z "},"⁶":{"ha":764,"x_min":0,"x_max":0,"o":"m 513 504 b 779 691 668 504 779 574 b 599 829 779 793 699 829 b 333 721 496 829 401 790 b 334 744 333 728 333 735 b 606 966 344 892 466 966 b 759 939 667 966 715 954 l 777 985 b 608 1014 738 1000 684 1014 b 278 716 420 1014 278 904 b 513 504 278 569 380 504 z m 337 672 b 594 783 402 738 498 783 b 725 687 662 783 725 760 b 518 550 725 589 619 550 b 337 672 432 550 356 585 z "},"⁷":{"ha":764,"x_min":0,"x_max":0,"o":"m 357 538 l 397 503 l 821 947 l 830 1002 l 315 1002 l 308 957 l 763 957 z "},"⁸":{"ha":764,"x_min":0,"x_max":0,"o":"m 435 769 b 257 620 333 747 257 702 b 485 504 257 535 351 504 b 760 646 633 504 760 545 b 628 767 760 720 697 754 b 773 896 706 781 773 819 b 574 1014 773 972 691 1014 b 332 872 444 1014 332 967 b 435 769 332 810 382 784 z m 314 629 b 528 743 314 699 415 743 b 703 644 627 743 703 710 b 492 550 703 589 623 550 b 314 629 371 550 314 576 z m 388 876 b 567 972 388 933 458 972 b 717 892 664 972 717 942 b 534 788 717 825 622 788 b 388 876 466 788 388 818 z "},"⁹":{"ha":764,"x_min":0,"x_max":0,"o":"m 462 505 b 789 801 653 505 789 608 b 556 1014 789 946 688 1014 b 297 825 431 1014 297 957 b 478 688 297 717 384 688 b 733 784 581 688 668 724 b 733 767 733 778 733 773 b 467 552 721 621 603 552 b 297 581 400 552 342 565 l 281 535 b 462 505 324 517 389 505 z m 352 828 b 554 968 352 920 442 968 b 732 835 640 968 717 931 b 481 735 667 774 583 735 b 352 828 415 735 352 753 z "},"⁽":{"ha":382,"x_min":0,"x_max":0,"o":"m 437 892 l 403 931 b 250 619 328 869 250 779 b 319 367 250 503 288 424 l 366 392 b 306 615 340 441 306 529 b 437 892 306 749 361 826 z "},"⁾":{"ha":382,"x_min":0,"x_max":0,"o":"m 196 390 l 229 351 b 383 664 305 413 383 503 b 313 916 383 779 345 858 l 267 890 b 327 668 293 842 327 753 b 196 390 327 534 272 456 z "},"⁺":{"ha":382,"x_min":0,"x_max":0,"o":"m 275 626 l 252 492 l 302 492 l 324 626 l 444 626 l 452 672 l 333 672 l 354 795 l 305 795 l 283 672 l 163 672 l 154 626 z "},"⁻":{"ha":382,"x_min":0,"x_max":0,"o":"m 159 674 l 151 626 l 448 626 l 456 674 z "},"⁼":{"ha":382,"x_min":0,"x_max":0,"o":"m 145 594 l 137 547 l 434 547 l 442 594 z m 161 686 l 458 686 l 467 733 l 169 733 z "},"ẞ":{"ha":2073,"x_min":0,"x_max":0,"o":"m 1544 -11 b 2006 297 1841 -11 2006 76 b 1663 497 2006 472 1833 489 b 1336 640 1498 505 1336 506 b 1698 850 1336 775 1452 850 b 2013 792 1828 850 1947 815 l 2033 847 b 1688 907 1969 871 1842 907 b 1272 638 1442 907 1272 819 b 1631 439 1272 456 1451 447 b 1944 282 1791 432 1944 424 b 1555 47 1944 119 1795 47 b 1190 122 1396 47 1262 89 l 1169 64 b 1544 -11 1251 24 1392 -11 z m 135 64 b 510 -11 217 24 358 -11 b 972 297 807 -11 972 76 b 629 497 972 472 799 489 b 302 640 464 505 302 506 b 664 850 302 775 418 850 b 979 792 794 850 913 815 l 999 847 b 654 907 935 871 808 907 b 238 638 408 907 238 819 b 597 439 238 456 417 447 b 910 282 757 432 910 424 b 521 47 910 119 761 47 b 156 122 362 47 228 89 z "}," ":{"ha":694,"x_min":0,"x_max":0,"o":""}," ":{"ha":517,"x_min":0,"x_max":0,"o":""}," ":{"ha":1389,"x_min":0,"x_max":0,"o":""}}}
